<svg width="20" height="21" viewBox="0 0 20 21" fill="none" xmlns="http://www.w3.org/2000/svg">
<path d="M5.75 1C5.75 0.585786 5.41421 0.25 5 0.25C4.58579 0.25 4.25 0.585786 4.25 1V2.57926C2.81067 2.69451 1.86577 2.97737 1.17157 3.67157C0.477374 4.36577 0.194513 5.31067 0.0792572 6.75H19.9207C19.8055 5.31067 19.5226 4.36577 18.8284 3.67157C18.1342 2.97737 17.1893 2.69451 15.75 2.57926V1C15.75 0.585786 15.4142 0.25 15 0.25C14.5858 0.25 14.25 0.585786 14.25 1V2.5129C13.5847 2.5 12.839 2.5 12 2.5H8C7.16097 2.5 6.41527 2.5 5.75 2.5129V1Z" fill="#FFC952"/>
<path fill-rule="evenodd" clip-rule="evenodd" d="M0 10.5C0 9.66096 0 8.91527 0.012902 8.25H19.9871C20 8.91527 20 9.66096 20 10.5V12.5C20 16.2712 20 18.1569 18.8284 19.3284C17.6569 20.5 15.7712 20.5 12 20.5H8C4.22876 20.5 2.34315 20.5 1.17157 19.3284C0 18.1569 0 16.2712 0 12.5V10.5ZM15 12.5C15.5523 12.5 16 12.0523 16 11.5C16 10.9477 15.5523 10.5 15 10.5C14.4477 10.5 14 10.9477 14 11.5C14 12.0523 14.4477 12.5 15 12.5ZM15 16.5C15.5523 16.5 16 16.0523 16 15.5C16 14.9477 15.5523 14.5 15 14.5C14.4477 14.5 14 14.9477 14 15.5C14 16.0523 14.4477 16.5 15 16.5ZM11 11.5C11 12.0523 10.5523 12.5 10 12.5C9.44771 12.5 9 12.0523 9 11.5C9 10.9477 9.44771 10.5 10 10.5C10.5523 10.5 11 10.9477 11 11.5ZM11 15.5C11 16.0523 10.5523 16.5 10 16.5C9.44771 16.5 9 16.0523 9 15.5C9 14.9477 9.44771 14.5 10 14.5C10.5523 14.5 11 14.9477 11 15.5ZM5 12.5C5.55228 12.5 6 12.0523 6 11.5C6 10.9477 5.55228 10.5 5 10.5C4.44772 10.5 4 10.9477 4 11.5C4 12.0523 4.44772 12.5 5 12.5ZM5 16.5C5.55228 16.5 6 16.0523 6 15.5C6 14.9477 5.55228 14.5 5 14.5C4.44772 14.5 4 14.9477 4 15.5C4 16.0523 4.44772 16.5 5 16.5Z" fill="#FFC952"/>
</svg>
