<svg width="20" height="17" viewBox="0 0 20 17" fill="none" xmlns="http://www.w3.org/2000/svg">
<path fill-rule="evenodd" clip-rule="evenodd" d="M8 0.5H12C15.7712 0.5 17.6569 0.5 18.8284 1.67157C20 2.84315 20 4.72876 20 8.5C20 12.2712 20 14.1569 18.8284 15.3284C17.6569 16.5 15.7712 16.5 12 16.5H8C4.22876 16.5 2.34315 16.5 1.17157 15.3284C0 14.1569 0 12.2712 0 8.5C0 4.72876 0 2.84315 1.17157 1.67157C2.34315 0.5 4.22876 0.5 8 0.5ZM11.25 5.5C11.25 5.08579 11.5858 4.75 12 4.75H17C17.4142 4.75 17.75 5.08579 17.75 5.5C17.75 5.91421 17.4142 6.25 17 6.25H12C11.5858 6.25 11.25 5.91421 11.25 5.5ZM12.25 8.5C12.25 8.08579 12.5858 7.75 13 7.75H17C17.4142 7.75 17.75 8.08579 17.75 8.5C17.75 8.91421 17.4142 9.25 17 9.25H13C12.5858 9.25 12.25 8.91421 12.25 8.5ZM13.25 11.5C13.25 11.0858 13.5858 10.75 14 10.75H17C17.4142 10.75 17.75 11.0858 17.75 11.5C17.75 11.9142 17.4142 12.25 17 12.25H14C13.5858 12.25 13.25 11.9142 13.25 11.5ZM9 5.5C9 6.60457 8.10457 7.5 7 7.5C5.89543 7.5 5 6.60457 5 5.5C5 4.39543 5.89543 3.5 7 3.5C8.10457 3.5 9 4.39543 9 5.5ZM7 13.5C11 13.5 11 12.6046 11 11.5C11 10.3954 9.20914 9.5 7 9.5C4.79086 9.5 3 10.3954 3 11.5C3 12.6046 3 13.5 7 13.5Z" fill="#FFC952"/>
</svg>
