<svg width="36" height="36" viewBox="0 0 36 36" fill="none" xmlns="http://www.w3.org/2000/svg">
    <mask id="mask0_2305_20" style="mask-type:alpha" maskUnits="userSpaceOnUse" x="0" y="7" width="36" height="24">
        <path opacity="0.35" d="M0.75 27H30C30 29.071 28.3211 30.75 26.25 30.75H0.75V27Z" fill="black"/>
        <path opacity="0.75" fill-rule="evenodd" clip-rule="evenodd" d="M28.5 7.5H7.5V27H28.5V7.5ZM18 12.75C15.929 12.75 14.25 14.4289 14.25 16.5V21.75H17.25C19.7353 21.75 21.75 19.7353 21.75 17.25V16.5C21.75 14.4289 20.071 12.75 18 12.75Z" fill="black"/>
        <path fill-rule="evenodd" clip-rule="evenodd" d="M6.75 7.5C3.43629 7.5 0.75 10.1863 0.75 13.5V27H7.5V7.5H6.75ZM35.25 7.5H28.5V27H30.75C33.2354 27 35.25 24.9853 35.25 22.5V7.5Z" fill="black"/>
    </mask>
    <g mask="url(#mask0_2305_20)">
        <path d="M0 0H36V36H0V0Z" fill="#3984F4"/>
    </g>
</svg>
