<svg width="32" height="32" viewBox="0 0 32 32" fill="none" xmlns="http://www.w3.org/2000/svg">
<mask id="mask0_2331_635" style="mask-type:alpha" maskUnits="userSpaceOnUse" x="4" y="4" width="24" height="24">
<path fill-rule="evenodd" clip-rule="evenodd" d="M28 16C28 22.6274 22.6274 28 16 28C9.37258 28 4 22.6274 4 16C4 9.37258 9.37258 4 16 4C22.6274 4 28 9.37258 28 16ZM12.5398 11.2071C13.2455 11.2541 13.9036 11.5795 14.3693 12.1117L16.0124 13.9895L17.6787 12.1322C18.151 11.6058 18.8131 11.2885 19.5193 11.2503C20.2255 11.212 20.918 11.4558 21.4444 11.9281L17.7814 16.0111L21.3936 20.139C20.8613 20.6048 20.1659 20.84 19.4602 20.793C18.7545 20.7459 18.0964 20.4205 17.6307 19.8883L15.9876 18.0105L14.3213 19.8678C13.849 20.3942 13.1869 20.7115 12.4807 20.7498C11.7745 20.7881 11.082 20.5443 10.5556 20.072L14.2186 15.989L10.6064 11.861C11.1386 11.3953 11.8341 11.16 12.5398 11.2071Z" fill="url(#paint0_linear_2331_635)"/>
</mask>
<g mask="url(#mask0_2331_635)">
<path d="M40 -8H-8V40H40V-8Z" fill="#181A1C" fill-opacity="0.2"/>
</g>
<defs>
<linearGradient id="paint0_linear_2331_635" x1="25.3196" y1="22.3775" x2="8.12473" y2="10.1145" gradientUnits="userSpaceOnUse">
<stop stop-opacity="0.66"/>
<stop offset="1" stop-opacity="0.95"/>
</linearGradient>
</defs>
</svg>
