<svg width="36" height="36" viewBox="0 0 36 36" fill="none" xmlns="http://www.w3.org/2000/svg">
<mask id="mask0_172_3943" style="mask-type:alpha" maskUnits="userSpaceOnUse" x="3" y="4" width="30" height="28">
<path fill-rule="evenodd" clip-rule="evenodd" d="M11.25 7.125C11.25 6.32935 11.5661 5.56629 12.1287 5.00368C12.6913 4.44107 13.4544 4.125 14.25 4.125H21.75C22.5456 4.125 23.3087 4.44107 23.8713 5.00368C24.4339 5.56629 24.75 6.32935 24.75 7.125V9.375H24C23.3348 9.37517 22.6884 9.15424 22.1624 8.74694C21.6365 8.33965 21.2608 7.76909 21.0945 7.125H14.9055C14.7392 7.76909 14.3635 8.33965 13.8376 8.74694C13.3116 9.15424 12.6652 9.37517 12 9.375H11.25V7.125Z" fill="black"/>
<path fill-rule="evenodd" clip-rule="evenodd" d="M33 17.625H3V31.875H27C28.5913 31.875 30.1174 31.2429 31.2426 30.1176C32.3679 28.9924 33 27.4663 33 25.875V17.625ZM17.25 19.875C16.4544 19.875 15.6913 20.1911 15.1287 20.7537C14.5661 21.3163 14.25 22.0794 14.25 22.875V23.625H18.75C19.5456 23.625 20.3087 23.3089 20.8713 22.7463C21.4339 22.1837 21.75 21.4206 21.75 20.625V19.875H17.25Z" fill="url(#paint0_linear_172_3943)"/>
<path d="M3 16.875C3 15.2837 3.63214 13.7576 4.75736 12.6324C5.88258 11.5071 7.4087 10.875 9 10.875H33V17.625H3V16.875Z" fill="black"/>
</mask>
<g mask="url(#mask0_172_3943)">
<path d="M45 -9H-9V45H45V-9Z" fill="#3984F4"/>
</g>
<defs>
<linearGradient id="paint0_linear_172_3943" x1="31.5" y1="32.5875" x2="4.461" y2="16.434" gradientUnits="userSpaceOnUse">
<stop stop-opacity="0.8"/>
<stop offset="1" stop-opacity="0.4"/>
</linearGradient>
</defs>
</svg>
