<svg width="36" height="36" viewBox="0 0 36 36" fill="none" xmlns="http://www.w3.org/2000/svg">
<mask id="mask0_172_3693" style="mask-type:alpha" maskUnits="userSpaceOnUse" x="4" y="3" width="28" height="30">
<path fill-rule="evenodd" clip-rule="evenodd" d="M7.5 3C5.84315 3 4.5 4.34315 4.5 6V33H28.5C30.1569 33 31.5 31.6569 31.5 30V3H7.5ZM13.5 13.5C14.2957 13.5 15.0587 13.1839 15.6213 12.6213C16.1839 12.0587 16.5 11.2956 16.5 10.5L13.5 10.5C12.7044 10.5 11.9413 10.8161 11.3787 11.3787C10.8161 11.9413 10.5 12.7043 10.5 13.5L13.5 13.5ZM13.5 19.5C14.2957 19.5 15.0587 19.1839 15.6213 18.6213C16.1839 18.0587 16.5 17.2957 16.5 16.5L13.5 16.5C12.7044 16.5 11.9413 16.8161 11.3787 17.3787C10.8161 17.9413 10.5 18.7043 10.5 19.5H13.5ZM15.6213 24.6213C15.0587 25.1839 14.2957 25.5 13.5 25.5H10.5C10.5 24.7044 10.8161 23.9413 11.3787 23.3787C11.9413 22.8161 12.7044 22.5 13.5 22.5H16.5C16.5 23.2956 16.1839 24.0587 15.6213 24.6213ZM22.5 13.5C23.2957 13.5 24.0587 13.1839 24.6213 12.6213C25.1839 12.0587 25.5 11.2956 25.5 10.5L22.5 10.5C21.7044 10.5 20.9413 10.8161 20.3787 11.3787C19.8161 11.9413 19.5 12.7043 19.5 13.5L22.5 13.5ZM24.6213 18.6213C24.0587 19.1839 23.2957 19.5 22.5 19.5H19.5C19.5 18.7043 19.8161 17.9413 20.3787 17.3787C20.9413 16.8161 21.7044 16.5 22.5 16.5L25.5 16.5C25.5 17.2957 25.1839 18.0587 24.6213 18.6213ZM22.5 25.5C23.2957 25.5 24.0587 25.1839 24.6213 24.6213C25.1839 24.0587 25.5 23.2956 25.5 22.5H22.5C21.7044 22.5 20.9413 22.8161 20.3787 23.3787C19.8161 23.9413 19.5 24.7044 19.5 25.5H22.5Z" fill="url(#paint0_linear_172_3693)"/>
</mask>
<g mask="url(#mask0_172_3693)">
<path d="M45 -9H-9V45H45V-9Z" fill="#3984F4"/>
</g>
<defs>
<linearGradient id="paint0_linear_172_3693" x1="-2.3805" y1="33" x2="22.548" y2="0.979501" gradientUnits="userSpaceOnUse">
<stop/>
<stop offset="1" stop-opacity="0.61"/>
</linearGradient>
</defs>
</svg>
