<svg width="18" height="18" viewBox="0 0 18 18" fill="none" xmlns="http://www.w3.org/2000/svg">
<g id="Mask group">
<mask id="mask0_134_2497" style="mask-type:alpha" maskUnits="userSpaceOnUse" x="0" y="0" width="18" height="18">
<g id="Group">
<path id="Subtract" fill-rule="evenodd" clip-rule="evenodd" d="M9 18C13.9706 18 18 13.9706 18 9C18 4.02944 13.9706 0 9 0C4.02944 0 0 4.02944 0 9C0 13.9706 4.02944 18 9 18ZM10 4C8.89543 4 8 4.89543 8 6V10C8 10.5523 8.44772 11 9 11C9.55228 11 10 10.5523 10 10V4ZM9 14C9.55229 14 10 13.5523 10 13C10 12.4477 9.55229 12 9 12C8.44771 12 8 12.4477 8 13C8 13.5523 8.44771 14 9 14Z" fill="url(#paint0_linear_134_2497)"/>
</g>
</mask>
<g mask="url(#mask0_134_2497)">
<g id="Group_2">
<path id="Vector" d="M27 -9H-9V27H27V-9Z" fill="#3984F4"/>
</g>
</g>
</g>
<defs>
<linearGradient id="paint0_linear_134_2497" x1="15.9897" y1="13.7831" x2="3.09355" y2="4.58591" gradientUnits="userSpaceOnUse">
<stop stop-opacity="0.66"/>
<stop offset="1" stop-opacity="0.95"/>
</linearGradient>
</defs>
</svg>
