<svg width="18" height="18" viewBox="0 0 18 18" fill="none" xmlns="http://www.w3.org/2000/svg">
<g id="Mask group">
<mask id="mask0_134_2477" style="mask-type:alpha" maskUnits="userSpaceOnUse" x="0" y="0" width="18" height="18">
<g id="Group">
<path id="Vector" fill-rule="evenodd" clip-rule="evenodd" d="M18 9C18 4.02955 13.9705 0 9 0C4.02955 0 0 4.02955 0 9C0 13.9705 4.02955 18 9 18C13.9705 18 18 13.9705 18 9ZM12.9395 9.94091L12.3341 9.33464C12.2147 9.21512 12.073 9.12031 11.9169 9.05562C11.7609 8.99094 11.5936 8.95764 11.4247 8.95764C11.2558 8.95764 11.0885 8.99094 10.9325 9.05562C10.7764 9.12031 10.6346 9.21512 10.5153 9.33464L10.071 9.77891V4.28564H8.78646C8.31191 4.28564 7.92818 4.66936 7.92818 5.14227V9.77727L7.48473 9.33382C7.36537 9.21443 7.22365 9.11972 7.06769 9.05511C6.91172 8.99049 6.74455 8.95723 6.57573 8.95723C6.4069 8.95723 6.23974 8.99049 6.08377 9.05511C5.9278 9.11972 5.78609 9.21443 5.66673 9.33382L5.06045 9.93927L9.00164 13.8813L12.9395 9.94091Z" fill="url(#paint0_linear_134_2477)"/>
</g>
</mask>
<g mask="url(#mask0_134_2477)">
<g id="Group_2">
<path id="Vector_2" d="M27 -9H-9V27H27V-9Z" fill="#3984F4"/>
</g>
</g>
</g>
<defs>
<linearGradient id="paint0_linear_134_2477" x1="15.9897" y1="13.7831" x2="3.09355" y2="4.58591" gradientUnits="userSpaceOnUse">
<stop stop-opacity="0.66"/>
<stop offset="1" stop-opacity="0.95"/>
</linearGradient>
</defs>
</svg>
