<svg width="18" height="18" viewBox="0 0 18 18" fill="none" xmlns="http://www.w3.org/2000/svg">
<g id="Mask group">
<mask id="mask0_134_2483" style="mask-type:alpha" maskUnits="userSpaceOnUse" x="0" y="0" width="18" height="18">
<g id="Group">
<path id="Vector" fill-rule="evenodd" clip-rule="evenodd" d="M18 9C18 13.9705 13.9705 18 9 18C4.02955 18 0 13.9705 0 9C0 4.02955 4.02955 0 9 0C13.9705 0 18 4.02955 18 9ZM12.9395 8.05909L12.3341 8.66536C12.2147 8.78488 12.073 8.87969 11.9169 8.94438C11.7609 9.00906 11.5936 9.04236 11.4247 9.04236C11.2558 9.04236 11.0885 9.00906 10.9325 8.94438C10.7764 8.87969 10.6346 8.78488 10.5153 8.66536L10.071 8.22109V13.7144H8.78646C8.31191 13.7144 7.92818 13.3306 7.92818 12.8577V8.22273L7.48473 8.66618C7.36537 8.78557 7.22365 8.88028 7.06769 8.94489C6.91172 9.00951 6.74455 9.04277 6.57573 9.04277C6.4069 9.04277 6.23974 9.00951 6.08377 8.94489C5.9278 8.88028 5.78609 8.78557 5.66673 8.66618L5.06045 8.06073L9.00164 4.11873L12.9395 8.05909Z" fill="url(#paint0_linear_134_2483)"/>
</g>
</mask>
<g mask="url(#mask0_134_2483)">
<g id="Group_2">
<path id="Vector_2" d="M27 -9H-9V27H27V-9Z" fill="#3984F4"/>
</g>
</g>
</g>
<defs>
<linearGradient id="paint0_linear_134_2483" x1="15.9897" y1="4.21691" x2="3.09355" y2="13.4141" gradientUnits="userSpaceOnUse">
<stop stop-opacity="0.66"/>
<stop offset="1" stop-opacity="0.95"/>
</linearGradient>
</defs>
</svg>
