<svg width="18" height="18" viewBox="0 0 18 18" fill="none" xmlns="http://www.w3.org/2000/svg">
<g id="Mask group">
<mask id="mask0_134_2489" style="mask-type:alpha" maskUnits="userSpaceOnUse" x="0" y="0" width="18" height="18">
<g id="Group">
<path id="Subtract" fill-rule="evenodd" clip-rule="evenodd" d="M9 18C13.9706 18 18 13.9706 18 9C18 4.02944 13.9706 0 9 0C4.02944 0 0 4.02944 0 9C0 13.9706 4.02944 18 9 18ZM7.18985 13L5.86678 11.7896L4.32764 10.3813C4.08763 10.1617 3.97187 9.84645 4.00581 9.50488C4.03975 9.16331 4.22062 8.82339 4.50863 8.55991L4.78011 8.31154L7.19011 10.5163L13.2199 5L13.4914 5.24837C13.7794 5.51185 13.9602 5.85176 13.9942 6.19333C14.0281 6.5349 13.9124 6.85015 13.6724 7.06972L8.5131 11.7895L7.18985 13Z" fill="url(#paint0_linear_134_2489)"/>
</g>
</mask>
<g mask="url(#mask0_134_2489)">
<g id="Group_2">
<path id="Vector" d="M27 -9H-9V27H27V-9Z" fill="#3984F4"/>
</g>
</g>
</g>
<defs>
<linearGradient id="paint0_linear_134_2489" x1="15.9897" y1="13.7831" x2="3.09355" y2="4.58591" gradientUnits="userSpaceOnUse">
<stop stop-opacity="0.66"/>
<stop offset="1" stop-opacity="0.95"/>
</linearGradient>
</defs>
</svg>
