<svg width="24" height="24" viewBox="0 0 24 24" fill="none" xmlns="http://www.w3.org/2000/svg">
<g id="prem" clip-path="url(#clip0_194_1061)">
<g id="Clip path group">
<mask id="mask0_194_1061" style="mask-type:luminance" maskUnits="userSpaceOnUse" x="0" y="0" width="24" height="24">
<g id="clip0_58_887">
<path id="Vector" d="M24 0H0V24H24V0Z" fill="white"/>
</g>
</mask>
<g mask="url(#mask0_194_1061)">
<g id="Group">
<g id="Mask group">
<mask id="mask1_194_1061" style="mask-type:alpha" maskUnits="userSpaceOnUse" x="0" y="3" width="25" height="16">
<g id="Group_2">
<path id="Vector_2" fill-rule="evenodd" clip-rule="evenodd" d="M0 7L4.48718 17.7692C4.48706 17.7689 4.4873 17.7695 4.48718 17.7692C4.79792 18.514 5.52625 19 6.33333 19H17.6667C18.0063 19 18.332 18.9141 18.6185 18.759L0 7Z" fill="url(#paint0_linear_194_1061)"/>
<path id="Vector_3" fill-rule="evenodd" clip-rule="evenodd" d="M6.33362 19H17.667C18.4735 19 19.2011 18.5155 19.5122 17.7715L19.5131 17.7692L24.0003 7L5.38184 18.759C5.66828 18.9141 5.99394 19 6.33362 19Z" fill="url(#paint1_linear_194_1061)"/>
<path id="Vector_4" fill-rule="evenodd" clip-rule="evenodd" d="M6.33351 19H17.6668C18.0955 19 18.5019 18.8631 18.8353 18.6232L12.0002 3L5.16504 18.6232C5.49842 18.8631 5.9048 19 6.33351 19Z" fill="black"/>
</g>
</mask>
<g mask="url(#mask1_194_1061)">
<g id="Group_3">
<path id="Vector_5" d="M0 0H24V24H0V0Z" fill="#4972CF"/>
</g>
</g>
</g>
</g>
</g>
</g>
</g>
<defs>
<linearGradient id="paint0_linear_194_1061" x1="9.70863" y1="7" x2="9.70863" y2="19" gradientUnits="userSpaceOnUse">
<stop/>
<stop offset="1" stop-opacity="0.7"/>
</linearGradient>
<linearGradient id="paint1_linear_194_1061" x1="14.2917" y1="7" x2="14.2917" y2="19" gradientUnits="userSpaceOnUse">
<stop/>
<stop offset="1" stop-opacity="0.7"/>
</linearGradient>
<clipPath id="clip0_194_1061">
<rect width="24" height="24" fill="white"/>
</clipPath>
</defs>
</svg>
