<svg width="36" height="36" viewBox="0 0 36 36" fill="none" xmlns="http://www.w3.org/2000/svg">
<mask id="mask0_2305_195" style="mask-type:alpha" maskUnits="userSpaceOnUse" x="4" y="4" width="28" height="28">
<path fill-rule="evenodd" clip-rule="evenodd" d="M31.5 18C31.5 25.4557 25.4557 31.5 18 31.5C10.5443 31.5 4.5 25.4557 4.5 18C4.5 10.5443 10.5443 4.5 18 4.5C25.4557 4.5 31.5 10.5443 31.5 18ZM23.9093 16.5886L23.0011 17.498C22.8221 17.6773 22.6094 17.8195 22.3754 17.9166C22.1413 18.0136 21.8904 18.0635 21.637 18.0635C21.3836 18.0635 21.1327 18.0136 20.8987 17.9166C20.6646 17.8195 20.452 17.6773 20.2729 17.498L19.6065 16.8316V25.0715H17.6797C16.9679 25.0715 16.3923 24.496 16.3923 23.7866V16.8341L15.7271 17.4993C15.548 17.6784 15.3355 17.8204 15.1015 17.9173C14.8676 18.0143 14.6168 18.0642 14.3636 18.0642C14.1104 18.0642 13.8596 18.0143 13.6257 17.9173C13.3917 17.8204 13.1791 17.6784 13.0001 17.4993L12.0907 16.5911L18.0025 10.6781L23.9093 16.5886Z" fill="url(#paint0_linear_2305_195)"/>
</mask>
<g mask="url(#mask0_2305_195)">
<path d="M45 -9H-9V45H45V-9Z" fill="#3984F4"/>
</g>
<defs>
<linearGradient id="paint0_linear_2305_195" x1="28.4846" y1="10.8254" x2="9.14032" y2="24.6211" gradientUnits="userSpaceOnUse">
<stop stop-opacity="0.66"/>
<stop offset="1" stop-opacity="0.95"/>
</linearGradient>
</defs>
</svg>
