<svg width="11" height="9" viewBox="0 0 11 9" fill="none" xmlns="http://www.w3.org/2000/svg">
<path id="Vector" d="M0.970588 5.4C0.434546 5.4 0 4.99706 0 4.5C0 4.00294 0.434547 3.6 0.970588 3.6L7.6862 3.6L5.46075 1.5364C5.08171 1.18492 5.08171 0.615076 5.46075 0.263604C5.83979 -0.087868 6.45433 -0.087868 6.83337 0.263604L10.7157 3.8636C10.8977 4.03239 11 4.26131 11 4.5C11 4.7387 10.8977 4.96761 10.7157 5.1364L6.83337 8.7364C6.45433 9.08787 5.83979 9.08787 5.46075 8.7364C5.08171 8.38492 5.08171 7.81508 5.46075 7.4636L7.6862 5.4H0.970588Z" fill="#3984F4"/>
</svg>
