<?xml version="1.0" encoding="UTF-8" standalone="no" ?>
<!DOCTYPE svg PUBLIC "-//W3C//DTD SVG 1.1//EN" "http://www.w3.org/Graphics/SVG/1.1/DTD/svg11.dtd">
<svg xmlns="http://www.w3.org/2000/svg" xmlns:xlink="http://www.w3.org/1999/xlink" version="1.1" width="120" height="120" viewBox="0 0 120 120" xml:space="preserve">
<desc>Created with Fabric.js 5.2.4</desc>
<defs>
</defs>
<g transform="matrix(0 0 0 0 0 0)" id="2a50cb69-9e3d-4a26-8a4e-e6c6b538476f"  >
</g>
<g transform="matrix(1 0 0 1 60 60)" id="8542c412-46ab-4a09-b7b6-4d675227fdb1"  >
<rect style="stroke: none; stroke-width: 1; stroke-dasharray: none; stroke-linecap: butt; stroke-dashoffset: 0; stroke-linejoin: miter; stroke-miterlimit: 4; fill: rgb(255,255,255); fill-rule: nonzero; opacity: 1; visibility: hidden;" vector-effect="non-scaling-stroke"  x="-60" y="-60" rx="0" ry="0" width="120" height="120" />
</g>
<g transform="matrix(0.23 -0.23 0.23 0.23 60 60)"  >
<g style="" vector-effect="non-scaling-stroke"   >
		<g transform="matrix(0.5 0 0 0.5 88.61 -88.62)"  >
<path style="stroke: none; stroke-width: 1; stroke-dasharray: none; stroke-linecap: butt; stroke-dashoffset: 0; stroke-linejoin: miter; stroke-miterlimit: 4; fill: rgb(252,110,81); fill-rule: nonzero; opacity: 1;" vector-effect="non-scaling-stroke"  transform=" translate(-433.23, -78.76)" d="M 511.995 10.745 C 512.0100764696348 7.88864196456356 510.8853172476002 5.144229462799162 508.87 3.119999999999999 C 506.84733730315895 1.1023240007587622 504.10189726348494 -0.022856343369936916 501.245 -0.005000000000000782 C 498.589 0.025999999999999218 435.199 1.3859999999999992 357.57500000000005 78.994 C 353.41900000000004 83.166 353.41900000000004 89.916 357.57500000000005 94.072 L 417.91900000000004 154.414 C 422.07500000000005 158.57 428.84100000000007 158.57 432.99600000000004 154.414 C 510.62 76.79099999999998 511.96400000000006 13.400999999999982 511.995 10.744999999999976 z" stroke-linecap="round" />
</g>
		<g transform="matrix(0.5 0 0 0.5 -19.75 19.75)"  >
<path style="stroke: none; stroke-width: 1; stroke-dasharray: none; stroke-linecap: butt; stroke-dashoffset: 0; stroke-linejoin: miter; stroke-miterlimit: 4; fill: rgb(255,206,84); fill-rule: nonzero; opacity: 1;" vector-effect="non-scaling-stroke"  transform=" translate(-216.5, -295.5)" d="M 124.205 479.118 L 151.189 465.61899999999997 C 152.2136195771365 465.10372718404864 153.149668748814 464.4286105798817 153.962 463.61899999999997 L 373.325 244.24099999999999 C 374.5255634594091 243.0561663793232 375.4208236606087 241.59780844329478 375.93399999999997 239.99099999999999 L 389.55899999999997 197.851 L 432.996 154.414 L 357.575 78.99399999999999 L 314.155 122.43099999999998 L 271.99899999999997 136.05599999999998 C 270.3976631601702 136.58105120941983 268.941946278216 137.47469011413008 267.74899999999997 138.665 L 48.378 358.043 C 47.569868399990916 358.85395533653104 46.89488650555005 359.78745529654276 46.378 360.809 L 32.885999999999996 387.79200000000003 L 5.901999999999994 401.29200000000003 C 2.835680785162535 402.82375495127627 0.6930644654474145 405.7366414658178 0.1439999999999948 409.12 C -0.4091539520230897 412.5039724605939 0.7016159889053748 415.94721038069724 3.127999999999994 418.37 L 93.627 508.868 C 96.04601896664974 511.3013495414595 99.49027651886186 512.4184060448797 102.877 511.868 C 106.25993249140078 511.30767752894366 109.17169774592028 509.16509987994425 110.713 506.102 L 124.205 479.118 z" stroke-linecap="round" />
</g>
		<g transform="matrix(0.5 0 0 0.5 -96.95 96.95)"  >
<path style="stroke: none; stroke-width: 1; stroke-dasharray: none; stroke-linecap: butt; stroke-dashoffset: 0; stroke-linejoin: miter; stroke-miterlimit: 4; fill: rgb(246,187,66); fill-rule: nonzero; opacity: 1;" vector-effect="non-scaling-stroke"  transform=" translate(-62.1, -449.9)" d="M 5.902 401.292 C 2.835680785162541 402.8237549512762 0.6930644654474207 405.73664146581774 0.14400000000000102 409.11999999999995 C -0.40915395202308347 412.50397246059384 0.701615988905381 415.9472103806972 3.128 418.36999999999995 L 93.627 508.86799999999994 C 96.04601896664974 511.30134954145944 99.49027651886186 512.4184060448796 102.877 511.86799999999994 C 106.25993249140078 511.3076775289436 109.17169774592028 509.1650998799442 110.713 506.1019999999999 L 124.205 479.11799999999994 L 32.885999999999996 387.7919999999999 L 5.901999999999994 401.2919999999999 z" stroke-linecap="round" />
</g>
		<g transform="matrix(0.5 0 0 0.5 91.57 -91.57)"  >
<path style="stroke: none; stroke-width: 1; stroke-dasharray: none; stroke-linecap: butt; stroke-dashoffset: 0; stroke-linejoin: miter; stroke-miterlimit: 4; fill: rgb(233,87,63); fill-rule: nonzero; opacity: 1;" vector-effect="non-scaling-stroke"  transform=" translate(-439.14, -72.85)" d="M 397.966 43.963 L 468.02700000000004 114.024 C 472.33481976613405 108.21054106277218 476.43115917093013 102.24331429363265 480.3080000000001 96.13399999999993 L 415.8570000000001 31.682000000000002 C 409.74742422652815 35.55893745736983 403.7798677843607 39.65527420021591 397.96600000000007 43.96300000000004 z" stroke-linecap="round" />
</g>
		<g transform="matrix(0.5 0 0 0.5 -101.14 101.15)"  >
<path style="stroke: none; stroke-width: 1; stroke-dasharray: none; stroke-linecap: butt; stroke-dashoffset: 0; stroke-linejoin: miter; stroke-miterlimit: 4; fill: rgb(67,74,84); fill-rule: nonzero; opacity: 1;" vector-effect="non-scaling-stroke"  transform=" translate(-53.71, -458.29)" d="M 63.464 448.542 C 59.3 444.38599999999997 52.542 444.36999999999995 48.378 448.542 L 40.839 456.08799999999997 L 55.917 471.16599999999994 L 63.464 463.6189999999999 C 67.628 459.4629999999999 67.628 452.7129999999999 63.464 448.5419999999999 z" stroke-linecap="round" />
</g>
		<g transform="matrix(0.5 0 0 0.5 37.36 -37.44)"  >
<path style="stroke: none; stroke-width: 1; stroke-dasharray: none; stroke-linecap: butt; stroke-dashoffset: 0; stroke-linejoin: miter; stroke-miterlimit: 4; fill: rgb(0,0,0); fill-rule: nonzero; opacity: 0.1;" vector-effect="non-scaling-stroke"  transform=" translate(-330.71, -181.14)" d="M 314.155 122.43 L 271.99899999999997 136.055 L 321.811 129.852 z M 389.419 197.695 L 375.794 239.85 L 381.99699999999996 190.039 z" stroke-linecap="round" />
</g>
		<g transform="matrix(0.5 0 0 0.5 19.63 0)"  >
<path style="stroke: none; stroke-width: 1; stroke-dasharray: none; stroke-linecap: butt; stroke-dashoffset: 0; stroke-linejoin: miter; stroke-miterlimit: 4; fill: rgb(255,255,255); fill-rule: nonzero; opacity: 0.1;" vector-effect="non-scaling-stroke"  transform=" translate(-295.27, -256)" d="M 124.205 479.118 L 151.189 465.61899999999997 C 152.2136195771365 465.10372718404864 153.149668748814 464.4286105798817 153.962 463.61899999999997 L 373.325 244.24099999999999 C 374.5255634594091 243.0561663793232 375.4208236606087 241.59780844329478 375.93399999999997 239.99099999999999 L 389.55899999999997 197.851 L 432.996 154.414 C 510.62 76.79 511.964 13.401 511.995 10.745 C 512.0100764696348 7.88864196456356 510.8853172476002 5.144229462799162 508.87 3.119999999999999 C 506.84733730315895 1.1023240007587622 504.10189726348494 -0.022856343369936916 501.245 -0.005000000000000782 C 500.87 0.010999999999999219 499.276 0.025999999999999218 496.604 0.3069999999999992 C 494.979 16.526 484.55699999999996 72.681 417.918 139.321 L 374.48 182.75799999999998 L 360.855 224.89799999999997 C 360.3296222601889 226.50386823813173 359.4361944417846 227.96472031682572 358.24600000000004 229.16399999999996 L 138.87600000000003 448.5419999999999 C 138.06534450899258 449.35331274839507 137.12894920547777 450.02834131374885 136.10300000000004 450.54099999999994 L 109.11900000000003 464.0249999999999 L 95.62700000000002 491.02399999999994 C 94.09246783893971 494.0899553436445 91.17609933263148 496.2299654139957 87.79100000000003 496.77399999999994 C 84.40751258465382 497.3207390336561 80.96714473013753 496.2108949603722 78.54100000000003 493.78999999999996 L 93.62700000000002 508.86799999999994 C 96.04601896664977 511.30134954145944 99.49027651886189 512.4184060448796 102.87700000000002 511.86799999999994 C 106.2599324914008 511.3076775289436 109.17169774592031 509.1650998799442 110.71300000000002 506.1019999999999 L 124.20500000000003 479.11799999999994 z" stroke-linecap="round" />
</g>
</g>
</g>
</svg>