<svg xmlns="http://www.w3.org/2000/svg" viewBox="0 0 64 64" width="256" height="256">
    <path fill="#e6e9ed" d="M56,58a2.00588,2.00588,0,0,1-2,2H37a2.00588,2.00588,0,0,1-2-2V54a2.00588,2.00588,0,0,0,2,2H54a2.00588,2.00588,0,0,0,2-2v4Z" class="colore6e9ed svgShape"></path>
    <path fill="#ed5565" d="M29 3V54a2.00588 2.00588 0 01-2 2H10a2.00588 2.00588 0 01-2-2V3l.24-.05A2.01241 2.01241 0 0010 4H27a2.01241 2.01241 0 001.76-1.05zM56 3V54a2.00588 2.00588 0 01-2 2H37a2.00588 2.00588 0 01-2-2V3l.24-.05A2.01241 2.01241 0 0037 4H54a2.01241 2.01241 0 001.76-1.05z" class="colored5565 svgShape"></path>
    <path fill="#ccd1d9" d="M56 57.76A3.00272 3.00272 0 0154 63H37a3.00272 3.00272 0 01-2-5.24V58a2.00588 2.00588 0 002 2H54a2.00588 2.00588 0 002-2zM29 57.76A3.00272 3.00272 0 0127 63H10a3.00272 3.00272 0 01-2-5.24V58a2.00588 2.00588 0 002 2H27a2.00588 2.00588 0 002-2z" class="colorccd1d9 svgShape"></path>
    <path fill="#e6e9ed" d="M29,58a2.00588,2.00588,0,0,1-2,2H10a2.00588,2.00588,0,0,1-2-2V54a2.00588,2.00588,0,0,0,2,2H27a2.00588,2.00588,0,0,0,2-2v4Z" class="colore6e9ed svgShape"></path>
    <path fill="#da4453" d="M56 3a1.99993 1.99993 0 01-2 2H37a2 2 0 010-4H54A2.00588 2.00588 0 0156 3zM29 3a1.99993 1.99993 0 01-2 2H10a2 2 0 010-4H27A2.00588 2.00588 0 0129 3z" class="colorda4453 svgShape"></path>
    <path d="M10 6a3 3 0 010-6 1 1 0 010 2 1 1 0 000 2 1 1 0 010 2zM27 6a1 1 0 010-2 1 1 0 000-2 1 1 0 010-2 3 3 0 010 6z" fill="#000000" class="color000 svgShape"></path>
    <path d="M27 2H10a1 1 0 010-2H27a1 1 0 010 2zM27 6H10a1 1 0 010-2H27a1 1 0 010 2zM10 57a3.00328 3.00328 0 01-3-3 1 1 0 012 0 1.00067 1.00067 0 001 1 1 1 0 010 2zM27 57a1 1 0 010-2 1.00067 1.00067 0 001-1 1 1 0 012 0A3.00328 3.00328 0 0127 57z" fill="#000000" class="color000 svgShape"></path>
    <path d="M27 57H10a1 1 0 010-2H27a1 1 0 010 2zM10 61a3.00328 3.00328 0 01-3-3 1 1 0 012 0 1.00067 1.00067 0 001 1 1 1 0 010 2zM27 61a1 1 0 010-2 1.00067 1.00067 0 001-1 1 1 0 012 0A3.00328 3.00328 0 0127 61z" fill="#000000" class="color000 svgShape"></path>
    <path d="M27 61H10a1 1 0 010-2H27a1 1 0 010 2zM29 55a.99943.99943 0 01-1-1V3a1 1 0 012 0V54A.99943.99943 0 0129 55zM8 55a.99943.99943 0 01-1-1V3A1 1 0 019 3V54A.99943.99943 0 018 55z" fill="#000000" class="color000 svgShape"></path>
    <path d="M29 59a.99943.99943 0 01-1-1V54a1 1 0 012 0v4A.99943.99943 0 0129 59zM8 59a.99943.99943 0 01-1-1V54a1 1 0 012 0v4A.99943.99943 0 018 59z" fill="#000000" class="color000 svgShape"></path>
    <path d="M10 64a4.00022 4.00022 0 01-2.667-6.98145 1 1 0 011.334 1.49024A2.00014 2.00014 0 0010 62a1 1 0 010 2zM27 64a1 1 0 010-2 1.9994 1.9994 0 001.334-3.48926 1.00012 1.00012 0 011.332-1.49219A3.99962 3.99962 0 0127 64z" fill="#000000" class="color000 svgShape"></path>
    <path d="M27 64H10a1 1 0 010-2H27a1 1 0 010 2zM37 6a3 3 0 010-6 1 1 0 010 2 1 1 0 000 2 1 1 0 010 2zM54 6a1 1 0 010-2 1 1 0 000-2 1 1 0 010-2 3 3 0 010 6z" fill="#000000" class="color000 svgShape"></path>
    <path d="M54 2H37a1 1 0 010-2H54a1 1 0 010 2zM54 6H37a1 1 0 010-2H54a1 1 0 010 2zM37 57a3.00328 3.00328 0 01-3-3 1 1 0 012 0 1.00067 1.00067 0 001 1 1 1 0 010 2zM54 57a1 1 0 010-2 1.00067 1.00067 0 001-1 1 1 0 012 0A3.00328 3.00328 0 0154 57z" fill="#000000" class="color000 svgShape"></path>
    <path d="M54 57H37a1 1 0 010-2H54a1 1 0 010 2zM37 61a3.00328 3.00328 0 01-3-3 1 1 0 012 0 1.00067 1.00067 0 001 1 1 1 0 010 2zM54 61a1 1 0 010-2 1.00067 1.00067 0 001-1 1 1 0 012 0A3.00328 3.00328 0 0154 61z" fill="#000000" class="color000 svgShape"></path>
    <path d="M54 61H37a1 1 0 010-2H54a1 1 0 010 2zM56 55a.99943.99943 0 01-1-1V3a1 1 0 012 0V54A.99943.99943 0 0156 55zM35 55a.99943.99943 0 01-1-1V3a1 1 0 012 0V54A.99943.99943 0 0135 55z" fill="#000000" class="color000 svgShape"></path>
    <path d="M56 59a.99943.99943 0 01-1-1V54a1 1 0 012 0v4A.99943.99943 0 0156 59zM35 59a.99943.99943 0 01-1-1V54a1 1 0 012 0v4A.99943.99943 0 0135 59z" fill="#000000" class="color000 svgShape"></path>
    <path d="M37 64a4.00022 4.00022 0 01-2.667-6.98145 1 1 0 011.334 1.49024A2.00014 2.00014 0 0037 62a1 1 0 010 2zM54 64a1 1 0 010-2 1.9994 1.9994 0 001.334-3.48926 1.00012 1.00012 0 011.332-1.49219A3.99962 3.99962 0 0154 64z" fill="#000000" class="color000 svgShape"></path>
    <path d="M54,64H37a1,1,0,0,1,0-2H54a1,1,0,0,1,0,2Z" fill="#000000" class="color000 svgShape"></path>
</svg>
