<svg width="60" height="60" viewBox="0 0 60 60" fill="none" xmlns="http://www.w3.org/2000/svg">
<path d="M38.267 20.6897C38.2745 20.3471 38.2784 20.0023 38.2784 19.6552C38.2784 8.79996 34.5731 0 30.0025 0C25.4318 0 21.7266 8.79996 21.7266 19.6552C21.7266 20.0023 21.7304 20.3471 21.7379 20.6897H38.267Z" fill="#F8D832"/>
<path d="M40.3459 53.793H19.6562V31.1512C19.6562 29.0065 19.7897 26.8638 20.0557 24.7357L20.5775 20.5615C20.6421 20.0439 21.0823 19.6553 21.6039 19.6553H38.398C38.9198 19.6553 39.3598 20.0437 39.4245 20.5615L39.9462 24.7357C40.2122 26.8639 40.3457 29.0066 40.3457 31.1512V53.793H40.3459Z" fill="#F8D832"/>
<path d="M39.3114 60H20.6908C20.1195 60 19.6562 59.5367 19.6562 58.9654C19.6562 58.3942 20.1195 57.9309 20.6908 57.9309H39.3115C39.8828 57.9309 40.3461 58.3942 40.3461 58.9654C40.3459 59.5367 39.8827 60 39.3114 60Z" fill="#C4A316"/>
<path d="M38.2782 55.8621H21.7266V57.931H38.2782V55.8621Z" fill="#F8D832"/>
<path d="M30.0011 53.7931H19.6562L21.7252 55.8622H30.0011H38.277L40.3459 53.7931H30.0011Z" fill="#C4A316"/>
<path d="M21.7731 17.5862C21.7431 18.2665 21.7266 18.9561 21.7266 19.6551H38.2782C38.2782 18.9561 38.2617 18.2665 38.2317 17.5862H21.7731Z" fill="#C4A316"/>
</svg>
