<svg width="60" height="60" viewBox="0 0 60 60" fill="none" xmlns="http://www.w3.org/2000/svg">
<g clip-path="url(#clip0_839_3971)">
<path d="M24.8281 51.7241H35.173V26.8965H24.8281V51.7241Z" fill="#C4A316"/>
<path d="M24.8281 51.7241H35.173L34.3723 54.9249C34.2347 55.4762 33.7402 55.8621 33.1723 55.8621H26.8289C26.261 55.8621 25.7665 55.4762 25.629 54.9249L24.8281 51.7241Z" fill="#F8D832"/>
<path d="M33.6584 60H26.3416C25.5057 60 24.8281 59.3224 24.8281 58.4856V57.3766C24.8281 56.5398 25.5057 55.8621 26.3416 55.8621H33.6584C34.4943 55.8621 35.173 56.5396 35.173 57.3766V58.4856C35.1729 59.3224 34.4942 60 33.6584 60Z" fill="#C4A316"/>
<path d="M35.173 26.8965H24.8281L26.8971 22.7585H33.104L35.173 26.8965Z" fill="#F8D832"/>
<path d="M26.8984 22.7586H33.1054V16.5516H26.8984V22.7586Z" fill="#C4A316"/>
<path d="M33.1054 16.5517H26.8984C26.8984 12.4354 27.4995 8.34206 28.6819 4.39961L30.0019 0L31.3219 4.39961C32.5043 8.34206 33.1054 12.4355 33.1054 16.5517Z" fill="#F8D832"/>
</g>
<defs>
<clipPath id="clip0_839_3971">
<rect width="60" height="60" fill="white"/>
</clipPath>
</defs>
</svg>
