<svg xmlns="http://www.w3.org/2000/svg" version="1.1" xmlns:xlink="http://www.w3.org/1999/xlink" xmlns:svgjs="http://svgjs.com/svgjs" width="512" height="512" x="0" y="0" viewBox="0 0 4335 4335" style="enable-background:new 0 0 512 512" xml:space="preserve" class="">
    <g>
        <path fill="#4d4d4d" d="M540 2008C-6 1104-143 445 152 153 445-139 1103-2 2008 540c749 750 1504 1494 2253 2243 99 98 99 264 0 363L3152 4255c-103 106-267 99-366 3-294-301-2223-2226-2246-2250zm2478 159L2015 1160c-58-58 30-146 88-88l1003 1007c60 60-32 143-88 88zm-894 957c-14 0-32-7-42-17L1075 2100c-58-58 30-146 88-88l1007 1007c38 38 15 105-46 105zm1954-348L2781 4077l93 93c49 49 137 49 190 0l1109-1109c53-53 53-137 0-190zM663 1604c-21 0-46-15-56-36-187-376-286-672-286-873 0-83 127-83 127 0 0 183 92 458 271 821 23 48-18 88-56 88zm1523 1878 1295-1295L1973 681 681 1977zm1383-1207L2272 3568l422 422 1296-1295zM578 125c-729 0-468 904 29 1750L1878 604C1339 290 885 125 578 125z" data-original="#4d4d4d" class=""></path>
        <g fill="#f3a766">
            <path d="M1973 681 681 1977l1505 1505 1295-1295zm1045 1486L2015 1160c-58-58 30-146 88-88l1003 1007c60 60-32 143-88 88zm-1855-155 1007 1007c38 38 15 105-46 105-14 0-32-7-42-17L1075 2100c-58-58 30-146 88-88zM3569 2275 2272 3568l422 422 1296-1295zM4078 2776 2781 4077l93 93c49 49 137 49 190 0l1109-1109c53-53 53-137 0-190zM607 1875 1878 604C1339 290 885 125 578 125c-729 0-468 904 29 1750zM448 695c0 183 92 458 271 821 23 48-18 88-56 88-21 0-46-15-56-36-187-376-286-672-286-873 0-83 127-83 127 0z" fill="#f3a766" data-original="#f3a766" class=""></path>
        </g>
    </g>
</svg>
