<?xml version="1.0" encoding="UTF-8" standalone="no" ?>
<!DOCTYPE svg PUBLIC "-//W3C//DTD SVG 1.1//EN" "http://www.w3.org/Graphics/SVG/1.1/DTD/svg11.dtd">
<svg xmlns="http://www.w3.org/2000/svg" xmlns:xlink="http://www.w3.org/1999/xlink" version="1.1" width="1080" height="1080" viewBox="0 0 1080 1080" xml:space="preserve">
<desc>Created with Fabric.js 5.2.4</desc>
<defs>
</defs>
<g transform="matrix(1 0 0 1 540 540)" id="752d970d-c832-4135-9ba7-871c33cad070"  >
<rect style="stroke: none; stroke-width: 1; stroke-dasharray: none; stroke-linecap: butt; stroke-dashoffset: 0; stroke-linejoin: miter; stroke-miterlimit: 4; fill: rgb(255,255,255); fill-rule: nonzero; opacity: 1; visibility: hidden;" vector-effect="non-scaling-stroke"  x="-540" y="-540" rx="0" ry="0" width="1080" height="1080" />
</g>
<g transform="matrix(1 0 0 1 540 540)" id="23e6267c-350e-4d8d-b96f-86076f5f7b6b"  >
</g>
<g transform="matrix(1.22 -1.22 1.22 1.22 540 540)"  >
<g style=""   >
		<g transform="matrix(1 0 0 1 94.35 -93.97)"  >
<path style="stroke: none; stroke-width: 1; stroke-dasharray: none; stroke-linecap: butt; stroke-dashoffset: 0; stroke-linejoin: miter; stroke-miterlimit: 4; fill: rgb(240,196,25); fill-rule: nonzero; opacity: 1;" vector-effect="non-scaling-stroke"  transform=" translate(-349.59, -161.79)" d="M 291.23 323.586 L 448.46900000000005 312.356 C 452.24516926747765 312.0859289307273 455.4645326008513 309.51703841610123 456.56600000000003 305.895 C 457.6645167018364 302.2715386041241 456.41781116098923 298.3457678082484 453.43 296.02 L 424.984 273.895 C 422.5615766817813 272.0089018303727 421.24580775690157 269.03415256584725 421.47999999999996 265.97299999999996 C 421.7176696054775 262.9126540533158 423.47354737215994 260.17519705607134 426.15599999999995 258.68299999999994 L 506.67599999999993 213.94899999999993 C 510.1101388067261 212.0434398533305 511.9432507484058 208.15724008542196 511.22967147600826 204.2952103809217 C 510.5160922036107 200.43318067642144 507.41532853633726 197.4586029405843 503.52699999999993 196.90599999999992 L 407.4799999999999 183.18699999999993 C 404.54056863580035 182.76756789362426 401.98805284745924 180.94642245742446 400.6351092957433 178.30337047485412 C 399.28216574402734 175.66031849228378 399.2974142224503 172.52476829599803 400.67599999999993 169.89499999999992 L 452.2109999999999 71.51199999999993 C 454.0659999999999 67.96899999999992 453.4059999999999 63.62899999999993 450.5779999999999 60.80099999999993 C 447.74999999999994 57.972999999999935 443.4099999999999 57.30899999999993 439.86799999999994 59.16799999999993 L 341.4839999999999 110.70299999999992 C 338.85400271352535 112.08203624501704 335.7179744003733 112.09739595488412 333.0745950658099 110.74418777225385 C 330.4312157312465 109.39097958962358 328.61002950984295 106.83790492394137 328.1909999999999 103.89799999999991 L 314.47 7.852 C 313.9150540294669 3.9653492273791113 310.9407335640462 0.8668731597635029 307.0800122786849 0.15353564127481079 C 303.21929099332357 -0.5598018772138804 299.33414895301445 1.271265434282311 297.427 4.703 L 252.69700000000003 85.223 C 251.2045580468456 87.90506784402416 248.46714455507242 89.66054220260298 245.40700000000004 89.898 C 242.34602853096345 90.13242626468947 239.37131467661231 88.81704850253445 237.48500000000004 86.395 L 215.36 57.949 C 213.0344845772042 54.96082233109265 209.10866882805144 53.71370496348837 205.485 54.812 C 201.86303245377655 55.913941203110085 199.29452416898064 59.13372140284342 199.025 62.91 L 187.794 220.148 z M 291.23 323.586" stroke-linecap="round" />
</g>
		<g transform="matrix(1 0 0 1 62.54 -62.16)"  >
<path style="stroke: none; stroke-width: 1; stroke-dasharray: none; stroke-linecap: butt; stroke-dashoffset: 0; stroke-linejoin: miter; stroke-miterlimit: 4; fill: rgb(243,213,91); fill-rule: nonzero; opacity: 1;" vector-effect="non-scaling-stroke"  transform=" translate(-317.82, -193.56)" d="M 237.863 191.23 L 276.637 118.45299999999999 C 278.4964850874908 114.9613240474816 282.39062799580563 113.06156494083409 286.28704970094714 113.74521956394284 C 290.1834714060886 114.4288741870516 293.19826915604983 117.5408555784641 293.758 121.457 L 299.308 160.309 C 299.726172907762 163.2492781078227 301.54729657270724 165.8028791182425 304.191 167.156 C 306.8349069006701 168.50707104011573 309.9697372833796 168.49253377674765 312.601 167.11700000000002 L 353.176 145.86300000000003 C 356.7189041467381 144.0026709043148 361.0600132536802 144.66330815105616 363.88913011064415 147.49334206372743 C 366.71824696760814 150.32337597639867 367.37747724107186 154.66469896561597 365.51599999999996 158.20700000000002 L 344.26599999999996 198.781 C 342.88696375498284 201.41099728647458 342.87160404511576 204.5470255996266 344.22481222774604 207.19040493419004 C 345.57802041037627 209.83378426875348 348.1310950760585 211.65497049015698 351.07099999999997 212.074 L 389.926 217.625 C 393.8421444215359 218.18473084395012 396.9541258129484 221.19952859391134 397.6377804360572 225.09595029905287 C 398.32143505916594 228.99237200419438 396.42167595251846 232.88651491250926 392.93 234.746 L 320.148 273.516" stroke-linecap="round" />
</g>
		<g transform="matrix(1 0 0 1 -84.51 84.89)"  >
<path style="stroke: none; stroke-width: 1; stroke-dasharray: none; stroke-linecap: butt; stroke-dashoffset: 0; stroke-linejoin: miter; stroke-miterlimit: 4; fill: rgb(192,58,43); fill-rule: nonzero; opacity: 1;" vector-effect="non-scaling-stroke"  transform=" translate(-170.98, -340.39)" d="M 31.328 376.555 L 207.145 200.738 L 310.64 304.234 L 134.824 480.051 z M 31.328 376.555" stroke-linecap="round" />
</g>
		<g transform="matrix(1 0 0 1 -84.5 84.88)"  >
<path style="stroke: none; stroke-width: 1; stroke-dasharray: none; stroke-linecap: butt; stroke-dashoffset: 0; stroke-linejoin: miter; stroke-miterlimit: 4; fill: rgb(230,76,60); fill-rule: nonzero; opacity: 1;" vector-effect="non-scaling-stroke"  transform=" translate(-171, -340.38)" d="M 31.328 376.555 L 134.824 480.05 L 108.94900000000001 505.83500000000004 C 105.53607557657776 509.3005503406553 100.87545849937149 511.251961669079 96.01150000000001 511.251961669079 C 91.14754150062853 511.251961669079 86.48692442342227 509.3005503406553 83.07400000000001 505.83500000000004 L 5.543 428.305 C 2.0776078329498437 424.8916776813868 0.12592481820717705 420.23112492303676 0.12499999999999911 415.367 C 0.125 410.504 2.0780000000000003 405.844 5.543 402.43 z M 336.516 278.36 L 310.641 304.23400000000004 L 207.14500000000004 200.73800000000006 L 233.02000000000004 174.86300000000006 C 240.16800000000003 167.73000000000005 251.74200000000005 167.73000000000005 258.89000000000004 174.86300000000006 L 336.5160000000001 252.48800000000006 C 343.6480000000001 259.63700000000006 343.6480000000001 271.21100000000007 336.5160000000001 278.35900000000004 z M 336.516 278.36" stroke-linecap="round" />
</g>
		<g transform="matrix(1 0 0 1 -110.44 59.03)"  >
<path style="stroke: none; stroke-width: 1; stroke-dasharray: none; stroke-linecap: butt; stroke-dashoffset: 0; stroke-linejoin: miter; stroke-miterlimit: 4; fill: rgb(251,123,118); fill-rule: nonzero; opacity: 1;" vector-effect="non-scaling-stroke"  transform=" translate(-145.1, -314.57)" d="M 200.723 268.078 C 197.02417074081126 268.078746868889 193.68927356936618 265.8508115830035 192.2739561265628 262.433471245469 C 190.85863868375944 259.0161309079345 191.6417547854938 255.08268916393843 194.258 252.46799999999996 L 200.723 246.00799999999995 C 204.305 242.51199999999994 210.031 242.55099999999996 213.57000000000002 246.08599999999996 C 217.10500000000002 249.62499999999994 217.145 255.35199999999995 213.64800000000002 258.93399999999997 L 207.18400000000003 265.39799999999997 C 205.473385414112 267.1164282679551 203.14770375179035 268.0811128144683 200.723 268.078 z M 83.086 385.723 C 79.38760598055241 385.7227013135996 76.05372478771703 383.4941037534997 74.63950829397061 380.076778758549 C 73.2252918002242 376.65945376359826 74.00937205140437 372.726690224745 76.626 370.113 L 168.39800000000002 278.336 C 171.9842668548528 274.85975373054265 177.69638693090388 274.90424304054295 181.2280719451805 278.43592805481956 C 184.75975695945706 281.96761306909616 184.8042462694574 287.6797331451473 181.32800000000003 291.266 L 89.55100000000003 383.04600000000005 C 87.83690813841794 384.76131353444293 85.51095554071715 385.7244342001885 83.08600000000003 385.72300000000007 z M 83.086 385.723" stroke-linecap="round" />
</g>
</g>
</g>
</svg>