<svg width="60" height="60" viewBox="0 0 60 60" fill="none" xmlns="http://www.w3.org/2000/svg">
<g clip-path="url(#clip0_114_1516)">
<path d="M38.5804 19.7519C27.1256 19.9812 18.0234 29.4674 18.0234 40.9107L49.5048 48.1085H52.5913C56.6823 48.1085 59.9987 44.7961 59.9987 40.71C59.9987 28.9897 50.3685 19.5159 38.5804 19.7519Z" fill="#BB9430"/>
<path d="M50.529 23.5812C50.4691 23.3519 50.3859 23.1261 50.2807 22.9077C50.1706 22.6927 50.036 22.4873 49.8821 22.2922C49.8051 22.1948 49.724 22.1016 49.6395 22.0132C49.5528 21.9264 49.4609 21.8457 49.3671 21.7691C49.1787 21.6163 48.9781 21.4834 48.7687 21.3727C48.3404 21.1591 47.8776 21.0339 47.4021 21.015C46.4568 20.9819 45.7246 20.2516 45.6534 19.32C45.6375 19.0823 45.5962 18.8471 45.531 18.6174C45.463 18.3912 45.3679 18.1742 45.2525 17.9645C45.0259 17.5403 44.6888 17.1784 44.2914 16.8733C43.4777 16.2841 42.4782 16.0608 41.544 16.2948C40.6327 16.5013 39.7159 16.0335 39.3867 15.1444C39.2185 14.6986 38.95 14.2971 38.6043 13.9596C38.253 13.6356 37.831 13.3598 37.349 13.2036C36.873 13.0313 36.3699 12.9861 35.8923 13.0275C35.4118 13.0775 34.9502 13.2353 34.5441 13.4802C33.7364 13.9817 32.7282 13.7931 32.1259 13.0778C31.9742 12.8931 31.8028 12.7226 31.6141 12.575C31.4251 12.4333 31.2189 12.3102 30.9999 12.2075C30.8905 12.1561 30.7776 12.1098 30.6623 12.0688C30.5468 12.0299 30.4284 12.0012 30.3078 11.9753C30.0669 11.9247 29.8171 11.8962 29.5638 11.8911C29.3104 11.8963 29.0607 11.9248 28.8198 11.9753C28.6993 12.0011 28.5808 12.03 28.4653 12.0688C28.3498 12.1098 28.2371 12.1561 28.1277 12.2075C27.9086 12.3102 27.7026 12.433 27.5134 12.575C27.3247 12.7226 27.1532 12.8931 27.0016 13.0778C26.3994 13.793 25.3912 13.9816 24.5832 13.4801C24.177 13.2352 23.7157 13.0773 23.2352 13.0274C22.7575 12.9859 22.2544 13.0312 21.7784 13.2034C21.2966 13.3596 20.8744 13.6356 20.5231 13.9596C20.1775 14.2971 19.9089 14.6987 19.7408 15.1445C19.4117 16.0334 18.495 16.5012 17.5834 16.295C16.6495 16.0608 15.65 16.2841 14.8361 16.8734C14.4387 17.1786 14.1016 17.5405 13.875 17.9647C13.7595 18.1743 13.6645 18.3916 13.5963 18.6176C13.5312 18.8472 13.4899 19.0824 13.4739 19.3203C13.4029 20.2517 12.6707 20.9819 11.7253 21.0153C11.2497 21.0343 10.7871 21.1593 10.3587 21.3729C10.1494 21.4838 9.94894 21.6167 9.76039 21.7694C9.66652 21.8459 9.57453 21.9266 9.48792 22.0135C9.40343 22.1018 9.32246 22.1949 9.24535 22.2924C9.0916 22.4875 8.95683 22.6929 8.84691 22.908C8.74167 23.1264 8.65835 23.3521 8.59859 23.5814C8.47367 24.037 8.46804 24.5238 8.55078 24.9889C8.57175 25.104 8.58101 25.2181 8.57902 25.3302C8.5796 25.4439 8.56941 25.5557 8.5489 25.6643C8.508 25.8814 8.42632 26.0856 8.3096 26.2681C8.08121 26.6357 7.72437 26.9249 7.26511 27.0483C6.81136 27.1796 6.38726 27.4048 6.02328 27.7104C5.8455 27.8652 5.68121 28.0393 5.53355 28.2298C5.45972 28.3251 5.38988 28.4245 5.32472 28.5274C5.26203 28.6316 5.20507 28.7402 5.15234 28.8517C5.0471 29.0751 4.96425 29.3049 4.90472 29.5374C4.84847 29.7712 4.82081 30.01 4.81355 30.2459C4.80851 30.4827 4.82081 30.7157 4.86804 30.9483C4.91445 31.1805 4.98417 31.4075 5.07757 31.6261C5.17132 31.8433 5.2107 32.0608 5.22042 32.2866L29.4046 40.2312L45.8657 28.7493C50.0634 27.8771 50.5764 24.9889 50.5764 24.9889C50.6594 24.5234 50.6539 24.0366 50.529 23.5812Z" fill="#C4C65A"/>
<path d="M45.8634 28.7493C44.1178 30.1679 36.0845 34.8612 29.4023 40.2312L46.9299 45.989C47.1919 45.5838 47.5568 45.3035 47.966 45.148C48.1724 45.0738 48.3851 45.0169 48.6123 45.0121C48.8366 45.0006 49.0654 45.0172 49.3 45.0854C49.7695 45.2131 50.2813 45.2154 50.7798 45.0846C51.0322 45.0243 51.2697 44.9159 51.5091 44.7943C51.7406 44.6633 51.9639 44.5048 52.1685 44.3206C52.5709 43.9439 52.8808 43.4927 53.0488 43.0057C53.0918 42.8848 53.1281 42.7631 53.1574 42.6418C53.1832 42.5177 53.2004 42.3927 53.2116 42.2692C53.2225 42.1456 53.2262 42.0229 53.2228 41.9018C53.2165 41.7788 53.2008 41.6557 53.1794 41.5359C53.1363 41.2991 53.1407 41.0706 53.1683 40.8461C53.1842 40.7349 53.2098 40.6272 53.2451 40.5233C53.2792 40.4189 53.3154 40.3146 53.3649 40.217C53.4128 40.1186 53.4726 40.026 53.5367 39.9363C53.5977 39.8453 53.6679 39.7595 53.7467 39.6796C53.9083 39.5213 54.0893 39.3798 54.3028 39.2698C54.4115 39.2141 54.5178 39.1514 54.6209 39.0822C54.7198 39.0114 54.8142 38.9337 54.906 38.8498C54.9975 38.7659 55.0856 38.6759 55.1698 38.5801C55.2498 38.4833 55.3228 38.38 55.3931 38.272C55.4621 38.1639 55.5301 38.0515 55.5867 37.9334C55.6408 37.8148 55.6899 37.692 55.7336 37.5656C55.8272 37.3139 55.8708 37.0444 55.9009 36.7699C55.9288 36.4952 55.9077 36.2207 55.8762 35.9571C55.8289 35.6932 55.7589 35.4389 55.6613 35.2021C55.5539 34.9657 55.4302 34.7456 55.2798 34.549C55.1223 34.3532 54.9471 34.1795 54.7566 34.0321C54.5631 33.8878 54.3983 33.7198 54.2765 33.534C54.1532 33.3486 54.047 33.1513 53.9917 32.9395C53.9323 32.729 53.8926 32.5126 53.9049 32.2866C53.9145 32.0607 53.9538 31.8431 54.0477 31.626C54.141 31.4073 54.211 31.1804 54.2572 30.9483C54.3045 30.7159 54.3168 30.4828 54.3117 30.2459C54.3045 30.0098 54.2768 29.7711 54.2206 29.5373C54.1609 29.305 54.0782 29.0749 53.973 28.8517C53.9202 28.7401 53.8633 28.6316 53.8006 28.5273C53.7353 28.4242 53.6656 28.3249 53.5917 28.2298C53.444 28.0392 53.2798 27.8652 53.102 27.7104C53.0616 27.6765 53.0204 27.6435 52.9785 27.6115C52.4435 27.2034 51.7834 26.9097 51.1156 26.8265C49.4046 26.6133 47.9673 27.0396 45.8634 28.7493Z" fill="#915729"/>
<path d="M31.1108 31.0909C35.2019 31.0909 38.5184 27.7787 38.5184 23.6929C38.5184 19.6072 35.2019 16.295 31.1108 16.295C27.0196 16.295 23.7031 19.6072 23.7031 23.6929C23.7031 27.7787 27.0196 31.0909 31.1108 31.0909Z" fill="#C95A3A"/>
<path d="M14.8139 33.1879C18.905 33.1879 22.2216 29.8757 22.2216 25.79C22.2216 21.7042 18.905 18.392 14.8139 18.392C10.7228 18.392 7.40625 21.7042 7.40625 25.79C7.40625 29.8757 10.7228 33.1879 14.8139 33.1879Z" fill="#C95A3A"/>
<path d="M7.40766 43.78C11.4988 43.78 14.8153 40.4678 14.8153 36.3821C14.8153 32.2963 11.4988 28.9841 7.40766 28.9841C3.31652 28.9841 0 32.2963 0 36.3821C0 40.4678 3.31652 43.78 7.40766 43.78Z" fill="#C95A3A"/>
<path d="M42.7162 41.9427C46.8074 41.9427 50.1239 38.6305 50.1239 34.5448C50.1239 30.459 46.8074 27.1469 42.7162 27.1469C38.6251 27.1469 35.3086 30.459 35.3086 34.5448C35.3086 38.6305 38.6251 41.9427 42.7162 41.9427Z" fill="#C95A3A"/>
<path d="M41.7933 22.1898C43.1175 21.8353 44.3294 23.0458 43.9745 24.3685L43.2828 26.9473L42.591 29.5261C42.2362 30.8488 40.5808 31.2918 39.6114 30.3235L37.7214 28.4357L35.8313 26.5479C34.8619 25.5797 35.3055 23.9263 36.6297 23.572L39.2114 22.8809L41.7933 22.1898Z" fill="#A7A951"/>
<path d="M40.7361 26.6832L41.4279 24.1044C41.6027 23.4527 41.3963 22.8293 40.9843 22.4059L39.2114 22.8804L36.6297 23.5713C35.3055 23.9258 34.8619 25.5791 35.8313 26.5473L37.7214 28.4351L39.461 30.1726C39.7316 29.9503 39.9421 29.6428 40.0444 29.2617L40.7361 26.6832Z" fill="#D1D274"/>
<path d="M22.051 17.2117C22.7364 16.3182 24.4503 16.3182 25.1357 17.2117L26.4721 18.9541L27.8085 20.6964C28.4939 21.59 27.6371 22.7071 26.2661 22.7071H23.5933H20.9204C19.5494 22.7071 18.6925 21.5901 19.3779 20.6964L20.7143 18.9541L22.051 17.2117Z" fill="#A7A951"/>
<path d="M24.4845 20.1686L23.1481 18.4263C22.8105 17.986 22.223 17.7637 21.632 17.7573L20.7143 18.9536L19.3779 20.696C18.6925 21.5895 19.5494 22.7067 20.9204 22.7067H23.5933H26.0535C26.0874 22.4442 26.0186 22.1682 25.8212 21.9109L24.4845 20.1686Z" fill="#D1D274"/>
<path d="M3.5084 27.6392C3.36051 26.5232 4.57223 25.3128 5.68961 25.4605L7.86813 25.7486L10.0466 26.0366C11.164 26.1844 11.349 27.5795 10.3795 28.5477L8.48934 30.4355L6.59922 32.3233C5.62985 33.2916 4.23297 33.1069 4.08508 31.9908L3.79668 29.815L3.5084 27.6392Z" fill="#A7A951"/>
<path d="M7.32566 28.0115L5.14715 27.7234C4.5966 27.6507 4.02391 27.9083 3.60156 28.3211L3.79973 29.8153L4.08813 31.9911C4.23602 33.1071 5.63277 33.2917 6.60227 32.3235L8.49238 30.4358L10.232 28.6982C10.0703 28.4887 9.82621 28.3422 9.5043 28.2995L7.32566 28.0115Z" fill="#D1D274"/>
<path d="M3.21094 40.9108C3.21094 29.4675 12.3132 19.9813 23.7679 19.752C35.5561 19.5161 45.1862 28.9898 45.1862 40.7102C45.1862 44.7961 48.5026 48.1087 52.5936 48.1087H10.4176C6.43746 48.1086 3.21094 44.8859 3.21094 40.9108Z" fill="#EBD37A"/>
<path d="M45.2531 41.7105H3.25391C3.65234 45.3093 6.70578 48.109 10.4151 48.109H52.5913C48.8401 48.1088 45.7422 45.3233 45.2531 41.7105Z" fill="#E2C35A"/>
<path d="M15.8859 30.7844C16.3859 30.7844 16.7912 30.379 16.7912 29.879C16.7912 29.379 16.3859 28.9736 15.8859 28.9736C15.3858 28.9736 14.9805 29.379 14.9805 29.879C14.9805 30.379 15.3858 30.7844 15.8859 30.7844Z" fill="#D9B43A"/>
<path d="M11.5382 34.4058C12.0382 34.4058 12.4436 34.0004 12.4436 33.5004C12.4436 33.0003 12.0382 32.595 11.5382 32.595C11.0382 32.595 10.6328 33.0003 10.6328 33.5004C10.6328 34.0004 11.0382 34.4058 11.5382 34.4058Z" fill="#D9B43A"/>
<path d="M18.7804 37.3036C19.2804 37.3036 19.6858 36.8983 19.6858 36.3983C19.6858 35.8982 19.2804 35.4929 18.7804 35.4929C18.2804 35.4929 17.875 35.8982 17.875 36.3983C17.875 36.8983 18.2804 37.3036 18.7804 37.3036Z" fill="#D9B43A"/>
<path d="M11.6593 30.0602C12.1593 30.0602 12.5647 29.6549 12.5647 29.1548C12.5647 28.6548 12.1593 28.2495 11.6593 28.2495C11.1593 28.2495 10.7539 28.6548 10.7539 29.1548C10.7539 29.6549 11.1593 30.0602 11.6593 30.0602Z" fill="#D9B43A"/>
<path d="M22.5226 26.4382C23.0226 26.4382 23.428 26.0328 23.428 25.5328C23.428 25.0327 23.0226 24.6274 22.5226 24.6274C22.0225 24.6274 21.6172 25.0327 21.6172 25.5328C21.6172 26.0328 22.0225 26.4382 22.5226 26.4382Z" fill="#D9B43A"/>
<path d="M26.1437 34.8891C26.6437 34.8891 27.0491 34.4838 27.0491 33.9838C27.0491 33.4837 26.6437 33.0784 26.1437 33.0784C25.6436 33.0784 25.2383 33.4837 25.2383 33.9838C25.2383 34.4838 25.6436 34.8891 26.1437 34.8891Z" fill="#D9B43A"/>
<path d="M29.7687 28.8527C30.2687 28.8527 30.6741 28.4473 30.6741 27.9473C30.6741 27.4472 30.2687 27.0419 29.7687 27.0419C29.2686 27.0419 28.8633 27.4472 28.8633 27.9473C28.8633 28.4473 29.2686 28.8527 29.7687 28.8527Z" fill="#D9B43A"/>
<path d="M38.2179 36.0961C38.7179 36.0961 39.1233 35.6908 39.1233 35.1907C39.1233 34.6907 38.7179 34.2853 38.2179 34.2853C37.7179 34.2853 37.3125 34.6907 37.3125 35.1907C37.3125 35.6908 37.7179 36.0961 38.2179 36.0961Z" fill="#D9B43A"/>
</g>
<defs>
<clipPath id="clip0_114_1516">
<rect width="60" height="60" fill="white"/>
</clipPath>
</defs>
</svg>
