<svg width="60" height="60" viewBox="0 0 60 60" fill="none" xmlns="http://www.w3.org/2000/svg">
<path d="M55.9493 46.8144H4.05071C1.8136 46.8144 0 45.0009 0 42.7636V41.9661C0 39.729 1.8136 37.9154 4.05071 37.9154H55.9494C58.1865 37.9154 60.0001 39.729 60.0001 41.9661V42.7636C60 45.0009 58.1865 46.8144 55.9493 46.8144V46.8144Z" fill="#E94444"/>
<path d="M59.9988 41.9656V42.7633C59.9988 45.0009 58.186 46.8149 55.9484 46.8149H53.5781C55.8157 46.8149 57.6285 45.0009 57.6285 42.7633V41.9656C57.6285 39.7292 55.8157 37.9152 53.5781 37.9152H55.9484C58.186 37.9152 59.9988 39.7293 59.9988 41.9656Z" fill="#D83131"/>
<path d="M55.9493 46.8143H30H4.05073C4.05073 46.8143 2.26097 55.4566 12.4458 58.8564C14.1904 59.4388 16.0118 59.71 17.8384 59.71H30.0001H42.1619C43.9884 59.71 45.8098 59.4388 47.5545 58.8564C57.7391 55.4566 55.9493 46.8143 55.9493 46.8143V46.8143Z" fill="#FE9738"/>
<path d="M47.5558 58.8563C45.8107 59.4393 43.9895 59.7108 42.1634 59.7108H39.4141C41.2413 59.7108 43.0625 59.4393 44.8077 58.8563C54.9914 55.4565 53.2016 46.8152 53.2016 46.8152H55.951C55.951 46.8151 57.7408 55.4565 47.5558 58.8563V58.8563Z" fill="#FE860A"/>
<path d="M56.0445 39.528C56.0445 41.5504 53.6945 42.6468 52.1321 41.3627C51.4899 40.8348 50.7314 40.4166 49.5293 40.4166C46.2723 40.4166 46.2723 42.9966 43.0151 42.9966C39.7579 42.9966 39.7579 40.4166 36.5007 40.4166C33.2436 40.4166 33.2436 42.9966 29.9866 42.9966C26.7296 42.9966 26.7296 40.4166 23.4726 40.4166C20.2154 40.4166 20.2154 42.9966 16.9582 42.9966C13.7011 42.9966 13.7011 40.4166 10.4441 40.4166C9.24255 40.4166 8.4843 40.8346 7.84219 41.3622C6.27966 42.6463 3.92969 41.5502 3.92969 39.5277V34.7414H56.0443V39.528H56.0445Z" fill="#BBEC6C"/>
<path d="M56.0467 34.7416V39.5282C56.0467 41.4206 53.9889 42.5019 52.4453 41.581C53.1271 41.1828 53.6171 40.4525 53.6171 39.5282V34.7416H56.0467Z" fill="#A2E62E"/>
<path d="M3.95703 30.9074V34.7781H9.54398C10.7062 34.7781 11.6485 35.7203 11.6485 36.8826V48.0303C11.6485 49.5163 12.8532 50.721 14.3392 50.721C15.8252 50.721 17.0297 49.5163 17.0297 48.0303V36.8826C17.0297 35.7203 17.972 34.7781 19.1342 34.7781H56.0457V30.9074H3.95703Z" fill="#FEE45A"/>
<path d="M53.6133 30.9072H56.0428V34.7777H53.6133V30.9072Z" fill="#FEDF30"/>
<path d="M55.9493 31.1717H4.05071C1.8136 31.1717 0 29.3582 0 27.121V26.3235C0 24.0864 1.8136 22.2728 4.05071 22.2728H55.9494C58.1865 22.2728 60.0001 24.0864 60.0001 26.3235V27.121C60 29.3582 58.1865 31.1717 55.9493 31.1717V31.1717Z" fill="#9E5528"/>
<path d="M59.9988 26.3233V27.121C59.9988 29.3586 58.186 31.1713 55.9484 31.1713H53.5781C55.8157 31.1713 57.6285 29.3586 57.6285 27.121V26.3233C57.6285 24.0868 55.8157 22.2729 53.5781 22.2729H55.9484C58.186 22.273 59.9988 24.087 59.9988 26.3233V26.3233Z" fill="#904D24"/>
<path d="M29.9999 0.289978C9.7685 0.582761 2.97104 11.5572 0.727033 17.9338C-0.0419608 20.1189 1.59755 22.4055 3.91388 22.4055H29.9999H56.0856C58.4191 22.4055 60.0375 20.0958 59.2593 17.8959C57.0017 11.5138 50.1912 0.582177 29.9999 0.289978V0.289978Z" fill="#FE9738"/>
<path d="M56.0846 22.4056H55.7961C56.5818 21.5293 56.9052 20.2537 56.4672 19.013C54.2091 12.6297 47.3986 1.69895 27.2074 1.40687C21.9839 1.48164 17.6547 2.2698 14.0703 3.50682C18.1352 1.63972 23.3393 0.38575 29.9988 0.289246C50.1901 0.582496 57.0007 11.5134 59.2587 17.8954C60.0359 20.0956 58.4174 22.4056 56.0846 22.4056Z" fill="#FE860A"/>
<path d="M21.649 9.56726C21.5083 9.56726 21.3657 9.53326 21.2332 9.46176C20.8075 9.23171 20.6489 8.70001 20.879 8.27427L21.6642 6.82134C21.8942 6.3956 22.426 6.23706 22.8517 6.4671C23.2774 6.69714 23.436 7.22885 23.2059 7.65459L22.4207 9.10752C22.2623 9.40077 21.9606 9.56726 21.649 9.56726V9.56726Z" fill="#E57917"/>
<path d="M29.9895 9.66649C29.5056 9.66649 29.1133 9.27417 29.1133 8.79025V7.1387C29.1133 6.65478 29.5056 6.26245 29.9895 6.26245C30.4735 6.26245 30.8658 6.65478 30.8658 7.1387V8.79025C30.8658 9.27417 30.4735 9.66649 29.9895 9.66649Z" fill="#E57917"/>
<path d="M38.3503 9.55517C38.0481 9.55517 37.754 9.39862 37.5915 9.11833L36.7629 7.68959C36.5201 7.27098 36.6627 6.73483 37.0813 6.49205C37.4999 6.24927 38.0361 6.39181 38.2788 6.81042L39.1074 8.23917C39.3502 8.65778 39.2077 9.19393 38.7891 9.4367C38.6507 9.51708 38.4997 9.55517 38.3503 9.55517V9.55517Z" fill="#E57917"/>
</svg>
