<svg width="60" height="60" viewBox="0 0 60 60" fill="none" xmlns="http://www.w3.org/2000/svg">
<g clip-path="url(#clip0_839_3974)">
<path d="M0.895423 59.1045C2.16765 60.3301 4.19218 60.2929 5.41857 59.0215L44.5708 19.8692L40.1307 15.4291L0.978308 54.5814C-0.292985 55.8077 -0.330149 57.8323 0.895423 59.1045Z" fill="#CBB292"/>
<path d="M43.6331 8.96749C33.6649 0.790136 22.4165 -2.18469 15.8672 1.6708C22.5571 2.21841 31.171 6.39219 39.2373 13.3633L46.6376 20.7636C53.6088 28.83 57.7824 37.4439 58.3301 44.1338C62.1858 37.5845 59.2108 26.336 51.0335 16.3678L43.6331 8.96749Z" fill="#A5A5A4"/>
<path d="M38.6366 13.9655L44.556 8.04606C45.3736 7.22846 46.6992 7.22846 47.5168 8.04606L51.9566 12.4858C52.7742 13.3034 52.7742 14.629 51.9566 15.4466L46.0372 21.3661C45.2196 22.1837 43.894 22.1837 43.0764 21.3661L38.6366 16.9263C37.819 16.1088 37.819 14.7832 38.6366 13.9655Z" fill="#7F6E5D"/>
</g>
<defs>
<clipPath id="clip0_839_3974">
<rect width="60" height="60" fill="white"/>
</clipPath>
</defs>
</svg>
