<svg width="60" height="60" viewBox="0 0 60 60" fill="none" xmlns="http://www.w3.org/2000/svg">
<g clip-path="url(#clip0_839_3973)">
<path d="M27.6901 26.4972C27.6901 26.4972 27.4288 28.0164 26.6445 28.2415C26.6445 28.2415 27.8863 31.3607 30.5132 31.8623C30.5132 31.8623 28.3697 33.2491 25.442 28.8605C25.442 28.8605 24.3441 29.2543 23.6123 28.6353C23.6123 28.6353 21.5839 29.4748 22.3053 31.8623C22.6561 33.0236 23.4032 35.2804 25.7558 35.2748C32.3526 35.2748 34.4515 30.4786 35.0445 28.5476C34.3107 28.3122 33.7722 27.5887 33.7722 26.7224V26.4973H44.2631V26.7224C44.2631 27.779 43.4673 28.6355 42.4856 28.6355H35.8928C35.3265 30.5709 33.0265 36.4001 25.7037 36.4001C25.7037 36.4001 22.0795 34.6203 20.0051 36.117L19.9883 26.4973H27.6901V26.4972Z" fill="#2F4859"/>
<path d="M56.3086 10.6562H57.3295C57.8127 10.6562 58.2044 11.0481 58.2044 11.5312V12.9043H55.4336V11.5312C55.4336 11.0481 55.8254 10.6562 56.3086 10.6562Z" fill="#3A556A"/>
<path d="M9.31355 12.2246L7.64062 10.1858V12.9043H9.31355V12.2246Z" fill="#3A556A"/>
<path d="M4.00804 19.4916H58.4841V12.6952H36.2363V14.3681H25.1124V12.6952H7.61502L7.51085 13.3748L4.21714 12.0155L3.58984 14.8909L4.7923 15.7536L4.00804 19.4916Z" fill="#64798A"/>
<path d="M60.0003 13.5864H58.4844V17.664H60.0003V13.5864Z" fill="#3A556A"/>
<path d="M58.4838 19.4917V25.1379H55.0333V26.8108H44.2635H20.0056V36.1167C20.0056 36.1167 16.0323 40.9265 17.1825 49.8141H3.58958C3.58958 49.8141 2.04862 48.1206 3.58958 42.4949C3.95576 41.1579 4.74514 38.4269 5.4119 36.1355C6.2492 33.2585 5.35053 30.1402 3.06734 28.1997C2.61891 27.8187 2.13011 27.453 1.60288 27.1246C0.559811 26.4749 -2.26586 24.4061 3.58958 22.6285L4.00778 19.4917H58.4838Z" fill="#3A556A"/>
<path d="M9.96376 18.792L10.0214 18.7725C10.3702 18.6544 10.5571 18.276 10.4391 17.9273L9.23485 14.3704C9.11672 14.0217 8.73837 13.8347 8.38961 13.9527L8.33196 13.9722C7.9832 14.0903 7.79627 14.4687 7.91427 14.8174L9.11852 18.3743C9.23652 18.7231 9.615 18.91 9.96376 18.792Z" fill="#3A556A"/>
<path d="M12.1942 18.792L12.2519 18.7725C12.6006 18.6544 12.7876 18.276 12.6696 17.9273L11.4653 14.3704C11.3472 14.0217 10.9688 13.8347 10.6201 13.9527L10.5624 13.9722C10.2137 14.0903 10.0267 14.4687 10.1447 14.8174L11.349 18.3743C11.467 18.7231 11.8455 18.91 12.1942 18.792Z" fill="#3A556A"/>
<path d="M14.4247 18.792L14.4824 18.7725C14.8311 18.6544 15.018 18.276 14.9 17.9273L13.6958 14.3704C13.5777 14.0217 13.1993 13.8347 12.8506 13.9527L12.7929 13.9722C12.4441 14.0903 12.2572 14.4687 12.3752 14.8174L13.5795 18.3743C13.6975 18.7231 14.0759 18.91 14.4247 18.792Z" fill="#3A556A"/>
<path d="M16.6552 18.792L16.7128 18.7725C17.0616 18.6544 17.2485 18.276 17.1305 17.9273L15.9263 14.3704C15.8081 14.0217 15.4298 13.8347 15.081 13.9527L15.0234 13.9722C14.6746 14.0903 14.4877 14.4687 14.6057 14.8174L15.8099 18.3743C15.9281 18.7231 16.3064 18.91 16.6552 18.792Z" fill="#3A556A"/>
<path d="M18.8856 18.792L18.9433 18.7725C19.292 18.6544 19.479 18.276 19.361 17.9273L18.1567 14.3704C18.0386 14.0217 17.6602 13.8347 17.3115 13.9527L17.2538 13.9722C16.9051 14.0903 16.7181 14.4687 16.8361 14.8174L18.0404 18.3743C18.1585 18.7231 18.5369 18.91 18.8856 18.792Z" fill="#3A556A"/>
<path d="M21.1161 18.792L21.1738 18.7725C21.5225 18.6544 21.7094 18.276 21.5914 17.9273L20.3872 14.3704C20.2691 14.0217 19.8907 13.8347 19.542 13.9527L19.4843 13.9722C19.1355 14.0903 18.9486 14.4687 19.0666 14.8174L20.2709 18.3743C20.3889 18.7231 20.7673 18.91 21.1161 18.792Z" fill="#3A556A"/>
<path d="M23.3466 18.792L23.4042 18.7725C23.753 18.6544 23.9399 18.276 23.8219 17.9273L22.6177 14.3704C22.4995 14.0217 22.1212 13.8347 21.7724 13.9527L21.7148 13.9722C21.366 14.0903 21.1791 14.4687 21.2971 14.8174L22.5013 18.3743C22.6193 18.7231 22.9978 18.91 23.3466 18.792Z" fill="#3A556A"/>
<path d="M2.98438 48.089H17.018L17.2871 49.8142H3.85793H3.58964C3.58964 49.8142 3.06215 49.1 2.98438 48.089Z" fill="#2F4859"/>
<path d="M55.0369 25.1383H19.9922V26.8111H55.0369V25.1383Z" fill="#2F4859"/>
<path d="M29.8755 20.2236H58.4841V18.8992H29.8755C29.5257 18.8992 29.2422 19.1827 29.2422 19.5325V19.5903C29.2422 19.9401 29.5257 20.2236 29.8755 20.2236Z" fill="#2F4859"/>
</g>
<defs>
<clipPath id="clip0_839_3973">
<rect width="60" height="60" fill="white"/>
</clipPath>
</defs>
</svg>
