<svg width="60" height="60" viewBox="0 0 60 60" fill="none" xmlns="http://www.w3.org/2000/svg">
<g clip-path="url(#clip0_839_3970)">
<path d="M39.375 6.5625C39.2519 6.56257 39.1299 6.53837 39.0162 6.49128C38.9024 6.44419 38.799 6.37514 38.7119 6.28807C38.6249 6.201 38.5558 6.09762 38.5087 5.98385C38.4616 5.87007 38.4374 5.74813 38.4375 5.625V1.875C38.4375 1.62636 38.5363 1.3879 38.7121 1.21209C38.8879 1.03627 39.1264 0.9375 39.375 0.9375C39.6236 0.9375 39.8621 1.03627 40.0379 1.21209C40.2137 1.3879 40.3125 1.62636 40.3125 1.875V5.625C40.3126 5.74813 40.2884 5.87007 40.2413 5.98385C40.1942 6.09762 40.1251 6.201 40.0381 6.28807C39.951 6.37514 39.8476 6.44419 39.7338 6.49128C39.6201 6.53837 39.4981 6.56257 39.375 6.5625Z" fill="#545C66"/>
<path d="M36.5625 25.3125C35.3197 25.311 34.1283 24.8167 33.2495 23.938C32.3708 23.0592 31.8765 21.8678 31.875 20.625C31.875 20.3764 31.9738 20.1379 32.1496 19.9621C32.3254 19.7863 32.5639 19.6875 32.8125 19.6875C33.0611 19.6875 33.2996 19.7863 33.4754 19.9621C33.6512 20.1379 33.75 20.3764 33.75 20.625C33.7508 21.3707 34.0474 22.0856 34.5747 22.6128C35.1019 23.1401 35.8168 23.4367 36.5625 23.4375C36.8111 23.4375 37.0496 23.5363 37.2254 23.7121C37.4012 23.8879 37.5 24.1264 37.5 24.375C37.5 24.6236 37.4012 24.8621 37.2254 25.0379C37.0496 25.2137 36.8111 25.3125 36.5625 25.3125Z" fill="#545C66"/>
<path d="M32.8125 21.5625C32.6894 21.5626 32.5674 21.5384 32.4537 21.4913C32.3399 21.4442 32.2365 21.3751 32.1494 21.2881C32.0624 21.201 31.9933 21.0976 31.9462 20.9838C31.8991 20.8701 31.8749 20.7481 31.875 20.625V18.75C31.875 18.5014 31.9738 18.2629 32.1496 18.0871C32.3254 17.9113 32.5639 17.8125 32.8125 17.8125C33.0611 17.8125 33.2996 17.9113 33.4754 18.0871C33.6512 18.2629 33.75 18.5014 33.75 18.75V20.625C33.7501 20.7481 33.7259 20.8701 33.6788 20.9838C33.6317 21.0976 33.5626 21.201 33.4756 21.2881C33.3885 21.3751 33.2851 21.4442 33.1713 21.4913C33.0576 21.5384 32.9356 21.5626 32.8125 21.5625Z" fill="#545C66"/>
<path d="M40.3125 24.375C40.1894 24.3751 40.0674 24.3509 39.9537 24.3038C39.8399 24.2567 39.7365 24.1876 39.6494 24.1006C39.5624 24.0135 39.4933 23.9101 39.4462 23.7963C39.3991 23.6826 39.3749 23.5606 39.375 23.4375V18.75C39.375 18.5014 39.4738 18.2629 39.6496 18.0871C39.8254 17.9113 40.0639 17.8125 40.3125 17.8125C40.5611 17.8125 40.7996 17.9113 40.9754 18.0871C41.1512 18.2629 41.25 18.5014 41.25 18.75V23.4375C41.2501 23.5606 41.2259 23.6826 41.1788 23.7963C41.1317 23.9101 41.0626 24.0135 40.9756 24.1006C40.8885 24.1876 40.7851 24.2567 40.6713 24.3038C40.5576 24.3509 40.4356 24.3751 40.3125 24.375Z" fill="#545C66"/>
<path d="M36.5625 28.125C36.3139 28.125 36.0754 28.0262 35.8996 27.8504C35.7238 27.6746 35.625 27.4361 35.625 27.1875C35.625 26.9389 35.7238 26.7004 35.8996 26.5246C36.0754 26.3488 36.3139 26.25 36.5625 26.25C37.3082 26.2492 38.0231 25.9526 38.5503 25.4253C39.0776 24.8981 39.3742 24.1832 39.375 23.4375C39.375 23.1889 39.4738 22.9504 39.6496 22.7746C39.8254 22.5988 40.0639 22.5 40.3125 22.5C40.5611 22.5 40.7996 22.5988 40.9754 22.7746C41.1512 22.9504 41.25 23.1889 41.25 23.4375C41.2485 24.6803 40.7542 25.8717 39.8755 26.7505C38.9967 27.6292 37.8053 28.1235 36.5625 28.125Z" fill="#545C66"/>
<path d="M32.8101 28.125C32.644 28.1252 32.4809 28.0809 32.3377 27.9968L27.533 25.1843C27.3189 25.0585 27.1634 24.8529 27.1007 24.6126C27.038 24.3723 27.0732 24.117 27.1986 23.9026C27.3239 23.6882 27.5292 23.5324 27.7694 23.4692C28.0096 23.406 28.265 23.4407 28.4796 23.5657L33.2843 26.3782C33.4622 26.4822 33.6008 26.6419 33.6788 26.8325C33.7568 27.0232 33.7699 27.2343 33.7159 27.4331C33.6619 27.632 33.5439 27.8075 33.3802 27.9325C33.2165 28.0576 33.0161 28.1252 32.8101 28.125Z" fill="#545C66"/>
<path d="M36.5625 28.125H32.8125C32.5639 28.125 32.3254 28.0262 32.1496 27.8504C31.9738 27.6746 31.875 27.4361 31.875 27.1875C31.875 26.9389 31.9738 26.7004 32.1496 26.5246C32.3254 26.3488 32.5639 26.25 32.8125 26.25H36.5625C36.8111 26.25 37.0496 26.3488 37.2254 26.5246C37.4012 26.7004 37.5 26.9389 37.5 27.1875C37.5 27.4361 37.4012 27.6746 37.2254 27.8504C37.0496 28.0262 36.8111 28.125 36.5625 28.125Z" fill="#545C66"/>
<path d="M19.6875 41.25H27.1875V59.0625H19.6875V41.25Z" fill="#545C66"/>
<path d="M52.5 14.0625V15.9375H49.6875V14.0625V8.4375H52.5V10.3125V14.0625Z" fill="#545C66"/>
<path d="M52.5 10.3125H59.0625V14.0625H52.5V10.3125Z" fill="#434A54"/>
<path d="M49.6875 17.8125H41.8125L44.0625 14.0625H49.6875V15.9375V17.8125Z" fill="#545C66"/>
<path d="M48.75 0.9375V4.6875H42.1875L45.9375 0.9375H48.75Z" fill="#545C66"/>
<path d="M7.5 0.9375V4.6875H0.9375V2.8125L2.8125 0.9375H7.5Z" fill="#545C66"/>
<path d="M48.75 4.6875H49.6875V14.0625H44.0625L41.8125 17.8125L41.25 18.75H29.0625V41.25H18.75C18.2575 41.2501 17.7698 41.1532 17.3148 40.9648C16.8597 40.7764 16.4463 40.5002 16.098 40.152C15.7498 39.8037 15.4736 39.3903 15.2852 38.9352C15.0968 38.4802 14.9999 37.9925 15 37.5V20.625L5.625 15H0.9375V4.6875H48.75Z" fill="#656D78"/>
<path d="M30 41.25H18.75C18.5014 41.25 18.2629 41.1512 18.0871 40.9754C17.9113 40.7996 17.8125 40.5611 17.8125 40.3125C17.8125 40.0639 17.9113 39.8254 18.0871 39.6496C18.2629 39.4738 18.5014 39.375 18.75 39.375H30C30.2486 39.375 30.4871 39.4738 30.6629 39.6496C30.8387 39.8254 30.9375 40.0639 30.9375 40.3125C30.9375 40.5611 30.8387 40.7996 30.6629 40.9754C30.4871 41.1512 30.2486 41.25 30 41.25Z" fill="#656D78"/>
<path d="M38.4375 10.3125H12.1875C11.9389 10.3125 11.7004 10.2137 11.5246 10.0379C11.3488 9.8621 11.25 9.62364 11.25 9.375C11.25 9.12636 11.3488 8.8879 11.5246 8.71209C11.7004 8.53627 11.9389 8.4375 12.1875 8.4375H38.4375C38.6861 8.4375 38.9246 8.53627 39.1004 8.71209C39.2762 8.8879 39.375 9.12636 39.375 9.375C39.375 9.62364 39.2762 9.8621 39.1004 10.0379C38.9246 10.2137 38.6861 10.3125 38.4375 10.3125Z" fill="#545C66"/>
<path d="M38.4375 13.125H12.1875C11.9389 13.125 11.7004 13.0262 11.5246 12.8504C11.3488 12.6746 11.25 12.4361 11.25 12.1875C11.25 11.9389 11.3488 11.7004 11.5246 11.5246C11.7004 11.3488 11.9389 11.25 12.1875 11.25H38.4375C38.6861 11.25 38.9246 11.3488 39.1004 11.5246C39.2762 11.7004 39.375 11.9389 39.375 12.1875C39.375 12.4361 39.2762 12.6746 39.1004 12.8504C38.9246 13.0262 38.6861 13.125 38.4375 13.125Z" fill="#545C66"/>
<path d="M25.3145 36.5625H18.8984C18.6498 36.5625 18.4113 36.4637 18.2355 36.2879C18.0597 36.1121 17.9609 35.8736 17.9609 35.625C17.9609 35.3764 18.0597 35.1379 18.2355 34.9621C18.4113 34.7863 18.6498 34.6875 18.8984 34.6875H25.3145C25.5631 34.6875 25.8016 34.7863 25.9774 34.9621C26.1532 35.1379 26.252 35.3764 26.252 35.625C26.252 35.8736 26.1532 36.1121 25.9774 36.2879C25.8016 36.4637 25.5631 36.5625 25.3145 36.5625Z" fill="#545C66"/>
<path d="M25.3145 33.75H18.8984C18.6498 33.75 18.4113 33.6512 18.2355 33.4754C18.0597 33.2996 17.9609 33.0611 17.9609 32.8125C17.9609 32.5639 18.0597 32.3254 18.2355 32.1496C18.4113 31.9738 18.6498 31.875 18.8984 31.875H25.3145C25.5631 31.875 25.8016 31.9738 25.9774 32.1496C26.1532 32.3254 26.252 32.5639 26.252 32.8125C26.252 33.0611 26.1532 33.2996 25.9774 33.4754C25.8016 33.6512 25.5631 33.75 25.3145 33.75Z" fill="#545C66"/>
<path d="M25.3145 30.9375H20.7734C20.5248 30.9375 20.2863 30.8387 20.1105 30.6629C19.9347 30.4871 19.8359 30.2486 19.8359 30C19.8359 29.7514 19.9347 29.5129 20.1105 29.3371C20.2863 29.1613 20.5248 29.0625 20.7734 29.0625H25.3145C25.5631 29.0625 25.8016 29.1613 25.9774 29.3371C26.1532 29.5129 26.252 29.7514 26.252 30C26.252 30.2486 26.1532 30.4871 25.9774 30.6629C25.8016 30.8387 25.5631 30.9375 25.3145 30.9375Z" fill="#545C66"/>
<path d="M25.3145 28.125H22.6484C22.3998 28.125 22.1613 28.0262 21.9855 27.8504C21.8097 27.6746 21.7109 27.4361 21.7109 27.1875C21.7109 26.9389 21.8097 26.7004 21.9855 26.5246C22.1613 26.3488 22.3998 26.25 22.6484 26.25H25.3145C25.5631 26.25 25.8016 26.3488 25.9774 26.5246C26.1532 26.7004 26.252 26.9389 26.252 27.1875C26.252 27.4361 26.1532 27.6746 25.9774 27.8504C25.8016 28.0262 25.5631 28.125 25.3145 28.125Z" fill="#545C66"/>
</g>
<defs>
<clipPath id="clip0_839_3970">
<rect width="60" height="60" fill="white"/>
</clipPath>
</defs>
</svg>
