<svg width="50" height="99" viewBox="0 0 50 99" fill="none" xmlns="http://www.w3.org/2000/svg">
<path d="M50 0.0108685C30.383 14.0953 17.3272 35.7705 16.4504 60.2491C15.96 74.0404 18.1966 86.8246 25.2706 99H21.964H18.6275C10.7806 90.5899 1.28436 74.7093 0.169754 57.5735C-1.19006 36.6123 5.6536 16.1846 19.4821 0.0258995H30.1898C30.1573 0.0584534 30.2222 -0.00669498 30.1898 0.0258995L36.9814 0.0108701C36.9387 0.0484139 37.0241 -0.0267552 36.9814 0.0108701L50 0.0108685Z" fill="url(#paint0_linear_2309_1144)"/>
<path d="M22.2885 78.3459C29.2949 70.874 35.8202 60.072 37.8762 49.3077C40.756 34.206 36.9648 21.7353 36.7097 20.8783C36.5274 20.2694 36.4399 19.856 36.5274 19.8034C36.7388 19.6906 38.2188 22.4118 39.2177 24.5692C41.1497 28.7336 43.2495 35.4688 43.1328 43.1963C42.9943 52.8031 39.677 62.3572 33.6475 69.7163C31.5551 72.2721 29.1637 74.5423 26.4588 76.429C24.6944 77.6618 21.6761 79.3607 21.574 79.1878C21.523 79.0901 21.8583 78.8044 22.2885 78.3459Z" fill="url(#paint1_linear_2309_1144)"/>
<path d="M22.0429 78.5765C26.6613 72.9955 30.8071 65.0936 31.8239 57.402C33.2488 46.6157 30.0983 37.9777 29.8834 37.3843C29.7331 36.9637 29.6543 36.6707 29.7116 36.6332C29.8548 36.543 31.0005 38.3983 31.7881 39.8781C33.3061 42.7399 35.046 47.3969 35.268 52.8577C35.5473 59.6404 33.5997 66.5358 29.6686 71.989C28.301 73.8819 26.7186 75.5869 24.8927 77.0366C23.7041 77.9831 21.6706 79.3126 21.5775 79.1924C21.5202 79.1173 21.7565 78.922 22.0429 78.5765Z" fill="url(#paint2_linear_2309_1144)"/>
<defs>
<linearGradient id="paint0_linear_2309_1144" x1="25" y1="0.123625" x2="46.5422" y2="98.8988" gradientUnits="userSpaceOnUse">
<stop stop-color="#3984F4"/>
<stop offset="1" stop-color="#ADCEFF"/>
</linearGradient>
<linearGradient id="paint1_linear_2309_1144" x1="32.3532" y1="19.8742" x2="49.5993" y2="76.7267" gradientUnits="userSpaceOnUse">
<stop stop-color="#210B07"/>
<stop offset="1" stop-color="#ADCEFF"/>
</linearGradient>
<linearGradient id="paint2_linear_2309_1144" x1="32.3532" y1="19.8742" x2="49.5993" y2="76.7267" gradientUnits="userSpaceOnUse">
<stop stop-color="#210B07"/>
<stop offset="1" stop-color="#ADCEFF"/>
</linearGradient>
</defs>
</svg>
