<svg width="60" height="60" viewBox="0 0 60 60" fill="none" xmlns="http://www.w3.org/2000/svg">
<g clip-path="url(#clip0_839_3231)">
<path d="M42.2396 31.4245C41.7469 31.4245 41.3477 31.0253 41.3477 30.5326V22.716C41.3477 22.2234 41.747 21.8241 42.2396 21.8241C42.7322 21.8241 43.1315 22.2234 43.1315 22.716V30.5326C43.1315 31.0253 42.7321 31.4245 42.2396 31.4245Z" fill="#FFD064"/>
<path d="M19.1536 31.4245C18.661 31.4245 18.2617 31.0253 18.2617 30.5326V22.716C18.2617 22.2234 18.6611 21.8241 19.1536 21.8241C19.6463 21.8241 20.0455 22.2234 20.0455 22.716V30.5326C20.0457 31.0253 19.6463 31.4245 19.1536 31.4245Z" fill="#FFD064"/>
<path d="M42.238 19.7852C41.7453 19.7852 41.3461 19.3859 41.3461 18.8932V12.4356C41.3461 11.943 41.7455 11.5437 42.238 11.5437C43.5765 11.5437 44.8251 11.0125 45.7537 10.0479C46.6819 9.08383 47.1649 7.81434 47.1139 6.47301C47.0178 3.942 44.9599 1.8843 42.4289 1.78809C40.2869 1.70875 38.3597 3.00731 37.6403 5.02469C37.1003 6.53887 35.6617 7.55617 34.0607 7.55617H34.0443C33.5516 7.55617 33.1523 7.15692 33.1523 6.66426C33.1523 6.1716 33.5517 5.77235 34.0443 5.77235H34.0607C34.9093 5.77235 35.6727 5.23117 35.96 4.42551C36.9425 1.67067 39.5721 -0.10695 42.4966 0.00566692C45.9541 0.136917 48.7652 2.94801 48.8966 6.40551C48.9661 8.23563 48.3063 9.96871 47.0388 11.2853C45.9797 12.3854 44.6157 13.0728 43.1299 13.2694V18.8935C43.1299 19.3858 42.7305 19.7852 42.238 19.7852Z" fill="#FFD064"/>
<path d="M19.152 19.7851C18.6593 19.7851 18.26 19.3858 18.26 18.8931V12.4355C18.26 11.9429 18.6594 11.5436 19.152 11.5436C20.4905 11.5436 21.7391 11.0124 22.6678 10.0478C23.5959 9.08374 24.079 7.81424 24.028 6.47292C23.9319 3.9419 21.874 1.88421 19.343 1.78799C17.1982 1.70842 15.2736 3.0071 14.5542 5.0246C14.0142 6.53878 12.5757 7.55608 10.9747 7.55608H10.9583C10.4657 7.55608 10.0664 7.15682 10.0664 6.66417C10.0664 6.17151 10.4658 5.77225 10.9583 5.77225H10.9747C11.8234 5.77225 12.5868 5.23108 12.874 4.42542C13.8565 1.67057 16.4859 -0.108802 19.4107 0.00557263C22.8682 0.136823 25.6793 2.94792 25.8107 6.40542C25.8802 8.23553 25.2204 9.96862 23.9529 11.2852C22.8937 12.3853 21.5298 13.0727 20.0439 13.2693V18.8934C20.044 19.3857 19.6446 19.7851 19.152 19.7851Z" fill="#FFD064"/>
<path d="M42.2384 36.2435H44.1623C44.1623 36.2435 49.9339 48.7187 49.9339 52.3045C49.9339 56.5547 46.4885 60 42.2384 60C37.9884 60 34.543 56.5546 34.543 52.3045C34.543 48.7187 40.3146 36.2435 40.3146 36.2435H42.2384Z" fill="#BED8FB"/>
<path d="M47.72 44.6293C47.5841 51.1407 42.552 56.4475 36.1562 57.0177C37.5641 58.8315 39.7636 60.0001 42.2375 60.0001C46.4876 60.0001 49.9329 56.5547 49.9329 52.3046C49.9329 50.7926 48.9068 47.7004 47.72 44.6293Z" fill="#9DC6FB"/>
<path d="M42.2384 24.7002C44.3634 24.7002 46.0861 22.9775 46.0861 20.8525C46.0861 18.7275 44.3634 17.0048 42.2384 17.0048C40.1133 17.0048 38.3906 18.7275 38.3906 20.8525C38.3906 22.9775 40.1133 24.7002 42.2384 24.7002Z" fill="#FFE07D"/>
<path d="M43.7999 17.3353C44.0118 17.8123 44.1304 18.3399 44.1304 18.8953C44.1304 21.0204 42.4077 22.7431 40.2827 22.7431C39.7272 22.7431 39.1996 22.6244 38.7227 22.4125C39.3212 23.76 40.6703 24.7002 42.2399 24.7002C44.365 24.7002 46.0877 22.9776 46.0877 20.8525C46.0877 19.283 45.1473 17.9339 43.7999 17.3353Z" fill="#FFD064"/>
<path d="M44.1622 32.3958H40.3145C39.252 32.3958 38.3906 31.5345 38.3906 30.472C38.3906 29.4094 39.252 28.5481 40.3145 28.5481H44.1622C45.2248 28.5481 46.0861 29.4094 46.0861 30.472C46.0861 31.5345 45.2248 32.3958 44.1622 32.3958Z" fill="#FFE07D"/>
<path d="M44.1607 28.5481H41.7344C42.7969 28.5481 43.6582 29.4094 43.6582 30.472C43.6582 31.5345 42.7969 32.3958 41.7344 32.3958H44.1607C45.2233 32.3958 46.0846 31.5345 46.0846 30.472C46.0846 29.4094 45.2233 28.5481 44.1607 28.5481Z" fill="#FFD064"/>
<path d="M44.1622 36.2436H40.3145C39.252 36.2436 38.3906 35.3823 38.3906 34.3197C38.3906 33.2572 39.252 32.3959 40.3145 32.3959H44.1622C45.2248 32.3959 46.0861 33.2572 46.0861 34.3197C46.0861 35.3823 45.2248 36.2436 44.1622 36.2436Z" fill="#FFE07D"/>
<path d="M44.1607 32.3959H41.7344C42.7969 32.3959 43.6582 33.2572 43.6582 34.3197C43.6582 35.3823 42.7969 36.2436 41.7344 36.2436H44.1607C45.2233 36.2436 46.0846 35.3823 46.0846 34.3197C46.0846 33.2572 45.2233 32.3959 44.1607 32.3959Z" fill="#FFD064"/>
<path d="M19.1526 36.2435H21.0765C21.0765 36.2435 26.8481 48.7187 26.8481 52.3045C26.8481 56.5547 23.4027 60 19.1526 60C14.9026 60 11.457 56.5546 11.457 52.3045C11.457 48.7187 17.2286 36.2435 17.2286 36.2435H19.1526Z" fill="#BED8FB"/>
<path d="M24.634 44.6293C24.4982 51.1407 19.466 56.4475 13.0703 57.0177C14.4782 58.8315 16.6777 60.0001 19.1515 60.0001C23.4017 60.0001 26.847 56.5547 26.847 52.3046C26.847 50.7926 25.8209 47.7004 24.634 44.6293Z" fill="#9DC6FB"/>
<path d="M19.1524 24.7002C21.2775 24.7002 23.0002 22.9775 23.0002 20.8525C23.0002 18.7275 21.2775 17.0048 19.1524 17.0048C17.0274 17.0048 15.3047 18.7275 15.3047 20.8525C15.3047 22.9775 17.0274 24.7002 19.1524 24.7002Z" fill="#FFE07D"/>
<path d="M20.714 17.3353C20.9259 17.8123 21.0445 18.3399 21.0445 18.8953C21.0445 21.0204 19.3218 22.7431 17.1967 22.7431C16.6413 22.7431 16.1137 22.6244 15.6367 22.4125C16.2353 23.76 17.5844 24.7002 19.154 24.7002C21.2791 24.7002 23.0017 22.9776 23.0017 20.8525C23.0017 19.283 22.0614 17.9339 20.714 17.3353Z" fill="#FFD064"/>
<path d="M21.0763 32.3958H17.2286C16.166 32.3958 15.3047 31.5345 15.3047 30.472C15.3047 29.4094 16.166 28.5481 17.2286 28.5481H21.0763C22.1388 28.5481 23.0002 29.4094 23.0002 30.472C23.0002 31.5345 22.1388 32.3958 21.0763 32.3958Z" fill="#FFE07D"/>
<path d="M21.0748 28.5481H18.6484C19.711 28.5481 20.5723 29.4094 20.5723 30.472C20.5723 31.5345 19.711 32.3958 18.6484 32.3958H21.0748C22.1373 32.3958 22.9987 31.5345 22.9987 30.472C22.9987 29.4094 22.1373 28.5481 21.0748 28.5481Z" fill="#FFD064"/>
<path d="M21.0763 36.2436H17.2286C16.166 36.2436 15.3047 35.3823 15.3047 34.3197C15.3047 33.2572 16.166 32.3959 17.2286 32.3959H21.0763C22.1388 32.3959 23.0002 33.2572 23.0002 34.3197C23.0002 35.3823 22.1388 36.2436 21.0763 36.2436Z" fill="#FFE07D"/>
<path d="M21.0748 32.3959H18.6484C19.711 32.3959 20.5723 33.2572 20.5723 34.3197C20.5723 35.3823 19.711 36.2436 18.6484 36.2436H21.0748C22.1373 36.2436 22.9987 35.3823 22.9987 34.3197C22.9987 33.2572 22.1373 32.3959 21.0748 32.3959Z" fill="#FFD064"/>
</g>
<defs>
<clipPath id="clip0_839_3231">
<rect width="60" height="60" fill="white"/>
</clipPath>
</defs>
</svg>
