<svg width="63" height="60" viewBox="0 0 63 60" fill="none" xmlns="http://www.w3.org/2000/svg">
<path d="M48.3969 40.3932C48.0511 40.8915 41.9901 49.5457 31.1088 50.5627C19.9223 51.5796 22.4647 46.0474 11.2783 44.461C5.88842 43.6983 3.03079 44.6135 1.99351 45.2847C1.60166 45.5404 1.07948 45.4553 0.789114 45.0884C0.498747 44.7215 0.535923 44.1937 0.874861 43.8711C2.90876 41.9593 7.8613 38.8372 12.8037 35.3084L34.1596 27.2745L48.3969 40.3932Z" fill="#464F5D"/>
<path d="M42.2946 10.6271C42.2946 10.139 42.3963 9.75252 42.3963 9.53896C42.3963 6.28472 36.6608 5.88811 36.2947 9.2237L36.2031 10.0779L42.2946 10.6271Z" fill="#2C3E50"/>
<path d="M59.7471 32.4712C59.7471 42.4576 57.8047 41.0949 52.1606 40.6068C45.042 39.9864 45.3369 41.1152 26.025 36.2847C21.9572 35.2678 16.2318 34.5762 12.8047 35.2678C12.8047 35.2678 13.5776 25.6576 18.2759 18.9356C24.6115 9.86438 39.2454 9.86438 39.2454 9.86438C43.1849 10.541 46.9458 12.0115 50.2996 14.1864C56.7166 18.3661 59.7471 24.7932 59.7471 32.4712Z" fill="#33907C"/>
<path d="M39.2454 9.86438C24.9369 12.4068 22.4047 31.3423 22.0182 35.5017C18.9784 34.9364 15.8674 34.8643 12.8047 35.2881C12.8047 35.2881 13.5776 25.6779 18.2759 18.9559C24.6115 9.86438 39.2454 9.86438 39.2454 9.86438Z" fill="#26B99A"/>
<path d="M43.3129 39.9966C35.0044 38.9796 27.0417 36.244 22.0078 35.5017C22.4044 31.3423 24.9366 12.4068 39.2451 9.86438C50.4315 15.6508 44.3298 36.6813 43.3129 39.9966Z" fill="#14A085"/>
</svg>
