<svg width="60" height="60" viewBox="0 0 60 60" fill="none" xmlns="http://www.w3.org/2000/svg">
<g clip-path="url(#clip0_839_3229)">
<path d="M9.36321 39.1373H3.13492C3.13492 39.1373 0.983723 46.5637 0.0486082 52.0282C-0.285868 53.9826 1.14826 55.7771 3.04502 55.7771H9.36321V39.1373Z" fill="#558971"/>
<path d="M50.6367 39.1373H56.865C56.865 39.1373 59.0162 46.5637 59.9513 52.0282C60.2858 53.9826 58.8517 55.7771 56.9549 55.7771H50.6367V39.1373Z" fill="#558971"/>
<path d="M2.62891 40.9528H9.36438V39.1373H3.13609C3.13609 39.1373 2.9347 39.8334 2.62891 40.9528Z" fill="#3A6851"/>
<path d="M57.3723 40.9528C57.0665 39.8333 56.865 39.1373 56.865 39.1373H50.6367V40.9528H57.3723Z" fill="#3A6851"/>
<path d="M10.571 28.3541C10.571 28.3541 8.84632 28.5458 7.25428 28.8602C6.1941 29.0695 5.29646 29.7662 4.82736 30.7397C3.99557 32.4661 2.64224 35.4466 1.83897 38.1158C1.56001 39.0427 2.26366 39.9741 3.23162 39.9741H10.5711V28.3541H10.571Z" fill="#558971"/>
<path d="M49.4297 28.3541C49.4297 28.3541 51.1543 28.5458 52.7464 28.8602C53.8066 29.0695 54.7042 29.7662 55.1733 30.7397C56.0053 32.4661 57.3584 35.4466 58.1617 38.1158C58.4408 39.0427 57.737 39.9741 56.7692 39.9741H49.4297V28.3541Z" fill="#558971"/>
<path d="M46.4522 16.6414H29.9986H13.545C9.01171 26.4752 7.61783 44.995 7.2044 53.632C7.08304 56.1668 9.1084 58.2868 11.6459 58.2868H29.9986H48.3511C50.8888 58.2868 52.9141 56.1668 52.7928 53.632C52.3795 44.995 50.9856 26.4752 46.4522 16.6414Z" fill="#74B097"/>
<path d="M52.458 48.0696C52.4521 48.0676 41.1715 44.9226 29.9986 44.6644C18.8256 44.9226 7.5452 48.0676 7.53919 48.0696C7.38698 50.1738 7.27919 52.0667 7.2044 53.6321C7.08304 56.1668 9.1084 58.2868 11.6459 58.2868H29.9986H48.3511C50.8888 58.2868 52.9141 56.1668 52.7928 53.6321C52.7178 52.0667 52.6102 50.1736 52.458 48.0696Z" fill="#544F3D"/>
<path d="M12.5 19.2226H47.5037C47.1737 18.3125 46.826 17.4454 46.4554 16.6414H30.0018H13.5481C13.1774 17.4454 12.8298 18.3125 12.5 19.2226Z" fill="#3A6851"/>
<path d="M49.8003 2.88354H29.9999H10.1997C8.96755 2.88354 7.96875 3.88235 7.96875 5.11447V15.433C7.96875 16.6651 8.96771 17.664 10.1997 17.664H29.9999H49.8002C51.0323 17.664 52.0311 16.6651 52.0311 15.433V5.11462C52.0311 3.88235 51.0324 2.88354 49.8003 2.88354Z" fill="#74B097"/>
<path d="M22.5472 58.2868H18.9844V2.97674C18.9844 2.2788 19.5502 1.71301 20.2481 1.71301H21.2835C21.9814 1.71301 22.5472 2.2788 22.5472 2.97674V58.2868Z" fill="#877280"/>
<path d="M18.9844 36.1647L22.5473 37.9907V33.6986H18.9844V36.1647Z" fill="#3F404A"/>
<path d="M37.4531 58.2868H41.0159V2.97674C41.0159 2.2788 40.4501 1.71301 39.7522 1.71301H38.7167C38.0189 1.71301 37.4531 2.2788 37.4531 2.97674V58.2868Z" fill="#877280"/>
<path d="M37.4531 36.1647L41.0162 37.9907V33.6986H37.4531V36.1647Z" fill="#3F404A"/>
<path d="M22.5341 35.1137H18.9989C18.2509 35.1137 17.6445 34.5073 17.6445 33.7593V25.4823C17.6445 24.7343 18.2509 24.1279 18.9989 24.1279H22.5341C23.2822 24.1279 23.8885 24.7344 23.8885 25.4823V33.7593C23.8887 34.5073 23.2822 35.1137 22.5341 35.1137Z" fill="#5A4652"/>
<path d="M37.4677 35.1137H41.0029C41.7509 35.1137 42.3573 34.5073 42.3573 33.7593V25.4823C42.3573 24.7343 41.7508 24.1279 41.0029 24.1279H37.4677C36.7196 24.1279 36.1133 24.7344 36.1133 25.4823V33.7593C36.1133 34.5073 36.7198 35.1137 37.4677 35.1137Z" fill="#5A4652"/>
</g>
<defs>
<clipPath id="clip0_839_3229">
<rect width="60" height="60" fill="white"/>
</clipPath>
</defs>
</svg>
