<svg width="60" height="60" viewBox="0 0 60 60" fill="none" xmlns="http://www.w3.org/2000/svg">
<path d="M2.31761 27.4416C2.31761 27.4416 16.5076 27.9912 25.1524 29.1864C26.3752 29.3556 27.6196 29.2524 28.7932 28.8708C30.5356 28.3044 33.5488 27.5412 37.3348 27.4416C37.3348 27.4416 43.198 26.6784 47.6548 30.8148L53.3968 37.1195C53.3968 37.1195 55.0036 40.0907 58.1356 37.9223C58.1356 37.9223 59.6212 36.7979 58.1356 35.9147L47.1328 27.642C47.1328 27.642 44.2012 25.3128 40.5064 25.3128C28.5364 25.566 15.7252 25.2564 2.31641 24.5496V27.4416H2.31761Z" fill="#A66348"/>
<path d="M57.6775 27.4416C57.6775 27.4416 43.4875 27.9912 34.8427 29.1864C33.6199 29.3556 32.3755 29.2524 31.2019 28.8708C29.4595 28.3044 26.4463 27.5412 22.6603 27.4416C22.6603 27.4416 16.7971 26.6784 12.3403 30.8148L6.59829 37.1195C6.59829 37.1195 4.99149 40.0907 1.85949 37.9223C1.85949 37.9223 0.373885 36.7979 1.85949 35.9147L12.8623 27.642C12.8623 27.642 15.7939 25.3128 19.4887 25.3128C31.4587 25.566 44.2699 25.2564 57.6787 24.5496V27.4416H57.6775Z" fill="#C37455"/>
<path d="M50.2539 26.898L54.8511 26.5068V25.1124L50.2539 25.5048V26.898Z" fill="#D7DADC"/>
<path d="M9.74173 26.898L5.14453 26.5068V25.1124L9.74173 25.5048V26.898Z" fill="#D7DADC"/>
<path d="M57.6931 24.0276C55.5655 22.7832 44.6179 16.932 35.7955 22.6356C35.1811 23.0328 34.4047 23.1084 33.7207 22.8492C30.9883 21.81 28.3903 21.8472 25.9123 22.8168C25.2127 23.0904 24.4195 23.028 23.7883 22.6212C14.9695 16.9428 4.03873 22.7844 1.91353 24.0276C1.68193 24.1632 1.53073 24.3972 1.50193 24.6648L1.29793 26.6052C1.25353 27.03 1.51033 27.4632 1.93033 27.5448C3.70873 27.894 4.17433 30.6396 4.17433 30.6396C5.38873 35.8788 9.48913 40.0464 15.0739 39.8088C23.6323 39.444 25.6351 32.6112 26.0947 29.8824C26.2963 28.6836 26.5519 27.5652 26.7835 26.748C26.8327 26.5692 26.7463 26.3724 26.5699 26.2944C26.3659 26.2032 26.2819 25.9572 26.3875 25.7604C27.4471 23.7648 32.1595 23.7636 33.2215 25.7604C33.5311 26.34 32.6575 26.1552 32.8411 26.802C33.1195 27.816 33.3403 28.8444 33.5143 29.8812C33.9739 32.61 35.9779 39.4428 44.5351 39.8076C50.1163 40.0452 54.2191 35.8812 55.4347 30.6384C55.4347 30.6384 55.9003 27.8928 57.6775 27.5436C58.0975 27.4608 58.3543 27.0288 58.3099 26.604L58.1059 24.6648C58.0759 24.3984 57.9247 24.1644 57.6931 24.0276ZM16.7131 38.568C10.2271 40.0008 4.36994 34.2108 5.95754 27.7596C7.00514 23.5044 10.8043 21.618 14.8483 21.618C14.8483 21.618 24.6763 21.0948 24.8059 27.966C24.8071 27.9672 24.9211 36.7548 16.7131 38.568ZM42.8911 38.568C34.6831 36.7548 34.7983 27.9672 34.7983 27.9672C34.9279 21.096 44.7559 21.6192 44.7559 21.6192C48.7999 21.6192 52.5991 23.5056 53.6467 27.7608C55.2331 34.2108 49.3771 40.0008 42.8911 38.568Z" fill="#555555"/>
<path d="M14.849 21.6192C10.805 21.6192 7.00576 23.5056 5.95816 27.7596C4.37056 34.2108 10.2278 40.0008 16.7138 38.568C24.9218 36.7548 24.8066 27.9672 24.8066 27.9672C24.6758 21.096 14.849 21.6192 14.849 21.6192Z" fill="#9FD7ED"/>
<path d="M53.6453 27.7596C52.5977 23.5044 48.7973 21.6192 44.7545 21.6192C44.7545 21.6192 34.9266 21.096 34.797 27.9672C34.797 27.9672 34.683 36.7548 42.8897 38.568C49.3769 40.0008 55.2329 34.2108 53.6453 27.7596Z" fill="#9FD7ED"/>
<path d="M2.80078 25.1628C3.44758 25.8108 4.49758 25.8108 5.14558 25.1628C4.49758 24.516 3.44758 24.516 2.80078 25.1628Z" fill="white"/>
<path d="M56.8058 25.1628C56.1589 25.8108 55.1089 25.8108 54.4609 25.1628C55.1077 24.516 56.1577 24.516 56.8058 25.1628Z" fill="white"/>
</svg>
