<svg width="60" height="60" viewBox="0 0 60 60" fill="none" xmlns="http://www.w3.org/2000/svg">
<path d="M42.1753 9.375C42.1753 2.8125 39.3628 2.8125 39.3628 2.8125H20.6363C20.6363 2.8125 17.8238 2.8125 17.8238 9.375C2.82379 9.375 4.68707 25.3125 4.68707 25.3125V51.5625L6.56207 53.4375V57.1875H14.0621V53.4375L15.9488 51.5625L17.8121 53.4375V57.1875H42.1871V53.4375L44.0503 51.5625L45.9371 53.4375V57.1875H53.4371V53.4375L55.3121 51.5625V25.3125C55.3121 25.3125 57.1753 9.375 42.1753 9.375Z" fill="#B37A60"/>
<path d="M27.1988 15V53.4375H17.8121L15.9488 51.5625L14.0621 53.4375H6.56207L4.68707 51.5625V25.3125C4.68707 25.3125 2.82379 9.375 17.8238 9.375C17.8238 9.375 21.5738 15 27.1988 15Z" fill="#95573A"/>
<path d="M17.8125 53.4375H27.1992V57.1875H17.8125V53.4375Z" fill="#734B39"/>
<path d="M6.5625 53.4375H14.0625V57.1875H6.5625V53.4375Z" fill="#734B39"/>
<path d="M15.9492 52.5C15.7006 52.5 15.4621 52.4012 15.2863 52.2254C15.1105 52.0496 15.0117 51.8111 15.0117 51.5625V24.375C15.0117 24.1264 15.1105 23.8879 15.2863 23.7121C15.4621 23.5363 15.7006 23.4375 15.9492 23.4375C16.1979 23.4375 16.4363 23.5363 16.6121 23.7121C16.7879 23.8879 16.8867 24.1264 16.8867 24.375V51.5625C16.8867 51.8111 16.7879 52.0496 16.6121 52.2254C16.4363 52.4012 16.1979 52.5 15.9492 52.5Z" fill="#734B39"/>
<path d="M27.1992 11.0409V15C21.5742 15 17.8242 9.375 17.8242 9.375C17.8242 2.8125 20.6367 2.8125 20.6367 2.8125C20.6367 2.8125 21.4062 8.19891 25.7344 9.21187C26.1492 9.30646 26.5199 9.53874 26.7859 9.87088C27.0519 10.203 27.1976 10.6154 27.1992 11.0409Z" fill="#734B39"/>
<path d="M55.3125 25.3125V51.5625L53.4375 53.4375H45.9375L44.0508 51.5625L42.1875 53.4375H32.8008V15C38.4258 15 42.1758 9.375 42.1758 9.375C57.1758 9.375 55.3125 25.3125 55.3125 25.3125Z" fill="#95573A"/>
<path d="M32.8008 53.4375H42.1875V57.1875H32.8008V53.4375Z" fill="#734B39"/>
<path d="M45.9375 53.4375H53.4375V57.1875H45.9375V53.4375Z" fill="#734B39"/>
<path d="M44.0508 52.5C43.8021 52.5 43.5637 52.4012 43.3879 52.2254C43.2121 52.0496 43.1133 51.8111 43.1133 51.5625V24.375C43.1133 24.1264 43.2121 23.8879 43.3879 23.7121C43.5637 23.5363 43.8021 23.4375 44.0508 23.4375C44.2994 23.4375 44.5379 23.5363 44.7137 23.7121C44.8895 23.8879 44.9883 24.1264 44.9883 24.375V51.5625C44.9883 51.8111 44.8895 52.0496 44.7137 52.2254C44.5379 52.4012 44.2994 52.5 44.0508 52.5Z" fill="#734B39"/>
<path d="M42.1758 9.375C42.1758 9.375 38.4258 15 32.8008 15V11.0409C32.8024 10.6154 32.9481 10.203 33.2141 9.87088C33.4801 9.53874 33.8508 9.30646 34.2656 9.21187C38.5938 8.19891 39.3633 2.8125 39.3633 2.8125C39.3633 2.8125 42.1758 2.8125 42.1758 9.375Z" fill="#734B39"/>
</svg>
