<svg width="60" height="60" viewBox="0 0 60 60" fill="none" xmlns="http://www.w3.org/2000/svg">
<g clip-path="url(#clip0_839_3234)">
<path d="M25.6476 56.0981L29.7126 20.5263C29.7516 20.1852 30.2471 20.1852 30.2861 20.5263L34.3511 56.0981L39.8108 57.3092L45.6863 56.0981V0.775314C45.6863 0.347087 45.3392 0 44.911 0H15.0878C14.6596 0 14.3125 0.347087 14.3125 0.775314V56.0981L19.5285 57.3092L25.6476 56.0981Z" fill="#5F99D7"/>
<path d="M42.0527 0.775314V56.8853H45.6858V0.775314C45.6858 0.347087 45.3387 0 44.9105 0H41.2773C41.7056 0 42.0527 0.347087 42.0527 0.775314Z" fill="#3C87D0"/>
<path d="M45.6866 4.18781V0.775314C45.6866 0.347087 45.3395 0 44.9112 0H37.3774L36.4691 1.21105L35.5608 0H24.4382L23.5299 1.21105L22.6216 0H15.0878C14.6596 0 14.3125 0.347087 14.3125 0.775314V4.18781H45.6866Z" fill="#0268B4"/>
<path d="M14.3125 56.0573V58.2341C14.3125 59.2094 15.1032 60.0001 16.0785 60.0001H23.6163C24.5181 60.0001 25.2752 59.3204 25.3721 58.4238L25.6277 56.0571H14.3125V56.0573Z" fill="#B3CEEC"/>
<path d="M34.3711 56.0573L34.6267 58.4239C34.7236 59.3205 35.4807 60.0002 36.3825 60.0002H43.9203C44.8957 60.0002 45.6863 59.2095 45.6863 58.2342V56.0574H40.0286H34.3711V56.0573Z" fill="#B3CEEC"/>
<path d="M30 15.554V4.19702H34.0317V11.5223C34.0317 13.7489 32.2266 15.554 30 15.554Z" fill="#3C87D0"/>
<path d="M14.3125 18.0225V4.18787H19.9288V12.4064C19.9286 15.5082 17.4142 18.0225 14.3125 18.0225Z" fill="#3C87D0"/>
<path d="M45.6866 18.0225V4.18787H40.0703V12.4064C40.0704 15.5082 42.5848 18.0225 45.6866 18.0225Z" fill="#3C87D0"/>
<path d="M42.0547 4.18787V16.6875C43.0342 17.5196 44.3019 18.0225 45.6878 18.0225V4.18787H42.0547Z" fill="#0078C8"/>
<path d="M22.6211 0V4.04769C22.6211 4.54931 23.0278 4.95598 23.5294 4.95598C24.031 4.95598 24.4377 4.54931 24.4377 4.04769V0H22.6211Z" fill="#5F99D7"/>
<path d="M35.5625 0V4.04769C35.5625 4.54931 35.9692 4.95598 36.4708 4.95598C36.9724 4.95598 37.3791 4.54931 37.3791 4.04769V0H35.5625Z" fill="#5F99D7"/>
</g>
<defs>
<clipPath id="clip0_839_3234">
<rect width="60" height="60" fill="white"/>
</clipPath>
</defs>
</svg>
