<svg width="60" height="60" viewBox="0 0 60 60" fill="none" xmlns="http://www.w3.org/2000/svg">
<g clip-path="url(#clip0_839_3230)">
<path d="M30.7632 44.1403C24.3214 44.1403 18.6582 43.7443 14.0441 43.236L11.3169 33.9378C11.172 33.4441 10.8038 33.0481 10.3221 32.8669L1.26172 29.4637C1.55867 27.4838 1.97645 25.225 2.55828 22.6656L12.3441 27.159C12.4045 27.1867 12.4648 27.2084 12.5288 27.2254C13.4922 27.4886 21.2572 29.39 28.2834 24.2942C33.2294 27.6829 42.4009 33.4354 48.6532 34.1875C57.5916 35.262 58.1179 35.4805 59.0536 38.466C59.9894 41.4517 48.7186 44.1403 30.7632 44.1403Z" fill="#FAF7F7"/>
<path d="M21.5637 37.9993C24.4726 37.9993 26.8306 35.6413 26.8306 32.7324C26.8306 29.8236 24.4726 27.4656 21.5637 27.4656C18.6549 27.4656 16.2969 29.8236 16.2969 32.7324C16.2969 35.6413 18.6549 37.9993 21.5637 37.9993Z" fill="#BEC7EC"/>
<path d="M26.8306 32.733C26.8306 35.6413 24.4716 37.999 21.5633 37.999C20.4888 37.999 19.4892 37.6779 18.6562 37.125C21.5572 37.1177 23.9078 34.7624 23.9078 31.8589C23.9078 30.0239 22.9697 28.4087 21.5476 27.4658H21.5633C24.4717 27.4658 26.8306 29.8236 26.8306 32.733Z" fill="#A3AFE4"/>
<path d="M56.5549 41.0909C56.1963 38.1103 54.3504 35.3649 52.2812 34.6454C57.7658 35.4 58.2631 35.9504 59.0515 38.4663C59.3424 39.3936 58.4551 40.2929 56.5549 41.0909Z" fill="#EFE2DD"/>
<path d="M41.2356 31.8374L37.912 43.9883C35.6702 44.0874 33.281 44.1405 30.7603 44.1405C28.4147 44.1405 26.1728 44.0885 24.0469 43.9968C32.925 43.2253 35.1559 33.979 35.7113 28.9811C37.5028 30.006 39.3813 30.9971 41.2356 31.8374Z" fill="#EFE2DD"/>
<path d="M29.0166 24.7932C21.8081 30.5844 13.5252 28.5574 12.528 28.2846C12.4641 28.2677 12.4037 28.2459 12.3434 28.2181L2.34375 23.627C2.76867 21.6724 3.29145 19.5344 3.93363 17.202C4.06887 16.7095 4.49988 16.3557 5.0093 16.3172C7.12922 16.1578 12.8878 15.5022 18.1296 12.9224C24.7066 9.68575 24.8118 21.8185 24.8118 21.8185C24.8118 21.8185 26.4717 23.0764 29.0166 24.7932Z" fill="#5B5555"/>
<path d="M29.0171 24.7932C26.4722 23.0765 24.8123 21.8185 24.8123 21.8185C24.8123 21.8185 24.7073 9.68575 18.1301 12.9224C17.9441 13.0141 17.7571 13.1034 17.57 13.1892C21.3311 13.249 21.9966 19.8443 22.1134 21.9773C22.1342 22.3558 22.294 22.7099 22.56 22.9746L12.3438 28.2182C12.4041 28.246 12.4645 28.2677 12.5284 28.2847C12.9761 28.4072 14.8927 28.8828 17.5207 28.8463C19.6277 27.5857 21.742 26.338 23.8758 25.1246C24.3666 24.8456 24.9754 24.8846 25.4296 25.2198C25.9006 25.5674 26.3958 25.9224 26.897 26.2661C27.6082 25.8434 28.318 25.3545 29.0171 24.7932Z" fill="#433F43"/>
<path d="M15.057 43.3436H15.0497C6.19456 42.431 0.898387 41.062 0.898387 41.062C0.898387 41.062 -0.0263392 37.439 1.38858 28.6334L11.136 32.2953C11.6171 32.476 11.9851 32.8725 12.1297 33.3655L15.057 43.3436Z" fill="#F82F40"/>
<path d="M15.0577 43.3436H15.0504C12.9558 43.1275 11.0604 42.8861 9.38719 42.6422C10.9627 39.7401 9.4234 33.5674 8.8125 31.4221L11.1364 32.2949C11.6181 32.476 11.9851 32.872 12.13 33.3658L15.0577 43.3436Z" fill="#E22334"/>
<path d="M24.6237 22.0966L12.9472 27.9945C12.6191 28.1602 12.2333 28.1675 11.8992 28.0141L3.07418 23.9626L2.34375 23.627C2.44641 23.1502 2.55621 22.6625 2.67328 22.1626L3.33 21.9514L23.278 15.4254C23.9048 15.2203 24.5843 15.5547 24.7949 16.1798C25.1563 17.252 25.5572 19.0316 25.2762 21.1797C25.2248 21.5741 24.9788 21.9171 24.6237 22.0966Z" fill="#F82F40"/>
<path d="M25.2752 21.1798C25.2233 21.5746 24.9769 21.9174 24.6221 22.0961L22.6748 23.08C22.6723 23.0788 22.6712 23.0764 22.6688 23.0752C22.3368 22.8036 22.1353 22.4064 22.1123 21.9766C22.0471 20.7923 21.8129 18.2317 20.9727 16.1794L23.2773 15.4249C23.9039 15.2197 24.5836 15.554 24.7936 16.1794C25.1545 17.2515 25.5564 19.0321 25.2752 21.1798Z" fill="#E22334"/>
<path d="M32.6055 44.1308C32.6055 44.1308 37.5179 38.6376 38.0982 31.0943C38.1636 30.2441 39.0607 29.7245 39.828 30.0964L42.8999 31.586C43.4447 31.8501 43.709 32.4767 43.5193 33.0518C43.1052 34.307 42.4561 36.4438 42.3973 37.666C42.3563 38.5461 42.6207 39.1231 43.4996 38.8938C46.1845 38.1924 48.5048 37.1723 53.195 37.6081C55.4332 37.8158 56.5559 36.8235 57.1197 35.7296C58.2689 36.2862 58.6166 37.0758 59.0513 38.4664C59.9543 41.3481 49.4839 43.9534 32.6055 44.1308Z" fill="#F82F40"/>
<path d="M56.5542 41.0909C56.3925 39.7545 55.9337 38.4676 55.2891 37.3871C56.2029 37.049 56.7691 36.408 57.1193 35.7295C58.2686 36.286 58.6163 37.0756 59.0509 38.4663C59.3418 39.3936 58.4544 40.2929 56.5542 41.0909Z" fill="#E22334"/>
<path d="M0 41.3936C0 40.6831 0.610078 40.1264 1.31754 40.1914C6.89543 40.7049 28.5586 42.6648 37.4427 42.9602C47.6733 43.3005 58.2171 40.4176 59.0523 38.4662C59.0523 38.4662 61.7666 42.0574 58.0084 44.1404C54.9248 45.8495 45.3237 47.1107 41.976 47.5085C41.2294 47.5972 40.4782 47.636 39.7264 47.6243L1.18852 47.0239C0.529102 47.0138 0 46.4764 0 45.817L0 41.3936Z" fill="#BEC7EC"/>
<path d="M58.0088 44.1404C57.5186 44.4121 56.8655 44.6716 56.0977 44.9191C56.7097 43.4028 56.7484 41.7356 56.4019 40.1879C57.8735 39.6012 58.8249 38.9988 59.053 38.4664C59.053 38.4664 61.767 42.058 58.0088 44.1404Z" fill="#A3AFE4"/>
<path d="M29.4907 29.5388C29.3393 29.5388 29.1859 29.5009 29.0448 29.4208C28.6098 29.174 28.4572 28.6215 28.704 28.1866L30.3264 25.3266C30.5732 24.8918 31.1258 24.7391 31.5606 24.9859C31.9956 25.2327 32.1482 25.7852 31.9014 26.2201L30.279 29.08C30.1124 29.3739 29.8061 29.5388 29.4907 29.5388Z" fill="#433F43"/>
<path d="M32.3114 31.0896C32.1894 31.0896 32.0656 31.0649 31.9468 31.0125C31.4892 30.8109 31.2817 30.2764 31.4834 29.8188L32.7435 26.959C32.9452 26.5014 33.4796 26.2937 33.9371 26.4955C34.3948 26.6971 34.6023 27.2316 34.4006 27.6892L33.1405 30.549C32.9911 30.8879 32.6593 31.0896 32.3114 31.0896Z" fill="#433F43"/>
<path d="M35.0224 32.4602C34.9004 32.4602 34.7765 32.4355 34.6578 32.3831C34.2002 32.1815 33.9926 31.6471 34.1943 31.1894L35.4544 28.3296C35.656 27.872 36.1905 27.6643 36.6481 27.8661C37.1057 28.0677 37.3133 28.6022 37.1116 29.0598L35.8515 31.9196C35.702 32.2584 35.3703 32.4602 35.0224 32.4602Z" fill="#433F43"/>
<path d="M25.5285 20.2794C25.496 20.2794 25.4633 20.2777 25.4301 20.2742L22.6754 19.971C22.1783 19.9172 21.8187 19.4706 21.8725 18.9735C21.9262 18.4763 22.3724 18.1165 22.87 18.1705L25.6247 18.4737C26.1219 18.5275 26.4814 18.9741 26.4276 19.4712C26.3774 19.9353 25.9849 20.2794 25.5285 20.2794Z" fill="#433F43"/>
<path d="M13.7565 24.863C12.7666 24.863 11.9882 24.3549 11.5615 23.8133C11.252 23.4206 11.3195 22.8513 11.7123 22.5418C12.105 22.2322 12.6744 22.2997 12.9839 22.6926C13.085 22.821 13.4716 23.2207 14.1977 22.9722C14.6708 22.8109 15.1857 23.0628 15.3475 23.5359C15.5093 24.0091 15.257 24.5239 14.7838 24.6857C14.4224 24.8093 14.0782 24.863 13.7565 24.863Z" fill="#433F43"/>
<path d="M16.9525 23.8924C16.5761 23.8924 16.2245 23.6559 16.0959 23.2799C15.934 22.8068 16.1863 22.2918 16.6594 22.13C17.3039 21.9096 17.4292 21.4482 17.4464 21.1929C17.4802 20.6939 17.9126 20.3158 18.4109 20.3507C18.9099 20.3845 19.2869 20.8163 19.2531 21.3152C19.2231 21.7575 18.99 23.2467 17.2455 23.8434C17.1486 23.8766 17.0496 23.8924 16.9525 23.8924Z" fill="#433F43"/>
<path d="M14.4603 22.1012C14.0839 22.1012 13.7323 21.8646 13.6037 21.4886C13.4418 21.0156 13.6941 20.5006 14.1672 20.3388L15.0678 20.0307C15.5409 19.869 16.0557 20.1214 16.2175 20.5944C16.3794 21.0675 16.1271 21.5824 15.654 21.7442L14.7534 22.0523C14.6564 22.0854 14.5573 22.1012 14.4603 22.1012Z" fill="#433F43"/>
</g>
<defs>
<clipPath id="clip0_839_3230">
<rect width="60" height="60" fill="white"/>
</clipPath>
</defs>
</svg>
